<?xml version="1.0" encoding="utf-8"?>
<!-- Generator: Adobe Illustrator 19.1.0, SVG Export Plug-In . SVG Version: 6.00 Build 0)  -->
<svg version="1.1" xmlns="http://www.w3.org/2000/svg" xmlns:xlink="http://www.w3.org/1999/xlink" x="0px" y="0px"
	 viewBox="0 0 288.7 59" style="enable-background:new 0 0 288.7 59;" xml:space="preserve">
<style type="text/css">
	.st0{display:none;}
	.st1{display:inline;}
	.st2{font-family:'NautilusPompilius';}
	.st3{font-size:44.9625px;}
	.st4{display:inline;fill:#00A651;stroke:#009444;stroke-miterlimit:10;}
	.st5{display:inline;fill:#00A651;}
	.st6{display:inline;fill:#FBB040;}
	.st7{fill:#FFFFFF;}
	.st8{fill:#00A651;}
	.st9{display:inline;fill:#F3B626;}
	.st10{display:inline;fill:#30AF4A;}
	.st11{fill:#00A651;stroke:#FFFFFF;stroke-miterlimit:10;}
	.st12{fill:#FBB040;}
	.st13{fill:#30AF4A;}
	.st14{display:none;fill:#FFFFFF;}
	.st15{display:none;fill:#FBB040;}
	.st16{fill:none;stroke:#00A651;stroke-width:0.25;stroke-miterlimit:10;}
	.st17{fill:none;stroke:#FFFFFF;stroke-miterlimit:10;}
	.st18{stroke:#FFFFFF;stroke-miterlimit:10;}
	.st19{display:inline;fill:#0A8C44;stroke:#009444;stroke-miterlimit:10;}
</style>
<g id="Layer_1" class="st0">
	<text transform="matrix(1 0 0 1 -105.1 -105.6443)" class="st1 st3" style="font-family:'MADEWaffleSoft'; letter-spacing:-2;">monkeyOpera</text>
	<text transform="matrix(1 0 0 1 -105.1 -17.5846)" class="st1"><tspan x="0" y="0" class="st3" style="font-family:'RoadRadio';">monkey</tspan><tspan x="151.9" y="0" style="font-family:'RoadRadio'; font-size:18px;"> </tspan><tspan x="155.7" y="0" class="st3" style="font-family:'RoadRadio';">Opera</tspan></text>
	<text transform="matrix(1 0 0 1 -105.0998 69.7289)" class="st1 st2 st3">monkeyOpera</text>
	<text transform="matrix(1 0 0 1 -105.1 122.005)" class="st1 st3" style="font-family:'HelveticaNeue'; letter-spacing:-2;">monkeyOpera</text>
	<g class="st1">
		<path d="M-70.2,200.4c-0.4-0.8-0.9-1.5-1.6-2.1c-0.2-0.2-0.5-0.4-0.8-0.5c-0.5-0.3-1-0.5-1.6-0.7c-0.9-0.3-2-0.4-3.2-0.4
			c-1.5,0-2.9,0.3-4.2,1c-1.3,0.7-2.3,1.7-3.1,2.9c-0.5-1.4-1.3-2.4-2.5-3c-1.2-0.6-2.5-0.9-3.9-0.9c-3.3,0-5.8,1.3-7.5,3.9h-0.1
			v-3.4h-3.6v23.2h3.8V206c0-0.5,0.1-1,0.3-1.7c0.2-0.7,0.6-1.3,1.1-2c0.5-0.6,1.1-1.2,1.9-1.6c0.8-0.5,1.7-0.7,2.8-0.7
			c0.9,0,1.6,0.1,2.1,0.4c0.5,0.3,1,0.6,1.3,1.1c0.3,0.5,0.6,1,0.7,1.6c0.1,0.6,0.2,1.3,0.2,2.1v15.2h3.8V206c0-1.8,0.5-3.2,1.6-4.3
			c1.1-1.1,2.6-1.6,4.4-1.6c0.8,0,1.5,0.1,2.1,0.3c0.1,0,0.1,0.1,0.2,0.1c0.6,0.3,1,0.6,1.4,1.1c0.3,0.5,0.5,1,0.7,1.6
			s0.2,1.3,0.2,2v15.2h3.8v-17C-69.6,202.3-69.8,201.2-70.2,200.4z"/>
		<path d="M-46,204.1c-0.5-1.5-1.2-2.8-2.2-3.9c-1-1.1-2.1-2-3.5-2.6c-1.4-0.6-3-0.9-4.9-0.9c-1.8,0-3.5,0.3-4.9,0.9
			c-1.4,0.6-2.6,1.5-3.5,2.6c-1,1.1-1.7,2.4-2.2,3.9c-0.5,1.5-0.7,3.1-0.7,4.8c0,1.7,0.2,3.3,0.7,4.8c0.5,1.5,1.2,2.8,2.2,3.8
			c1,1.1,2.1,2,3.5,2.6c1.4,0.6,3,0.9,4.9,0.9c1.9,0,3.5-0.3,4.9-0.9c1.4-0.6,2.6-1.5,3.5-2.6c1-1.1,1.7-2.4,2.2-3.8
			c0.5-1.5,0.7-3.1,0.7-4.8C-45.3,207.2-45.5,205.6-46,204.1z M-49.9,212.7c-0.4,1.1-0.9,2-1.5,2.7c-0.7,0.7-1.4,1.3-2.3,1.7
			c-0.9,0.4-1.8,0.6-2.8,0.6s-1.9-0.2-2.8-0.6c-0.9-0.4-1.7-1-2.3-1.7c-0.7-0.7-1.2-1.7-1.5-2.7c-0.4-1.1-0.6-2.3-0.6-3.8
			c0-1.4,0.2-2.7,0.6-3.8c0.4-1.1,0.9-2,1.5-2.8c0.7-0.8,1.4-1.3,2.3-1.7c0.9-0.4,1.8-0.6,2.8-0.6s1.9,0.2,2.8,0.6
			c0.9,0.4,1.7,1,2.3,1.7c0.7,0.8,1.2,1.7,1.5,2.8c0.4,1.1,0.6,2.3,0.6,3.8C-49.3,210.3-49.5,211.6-49.9,212.7z"/>
		<path d="M-24.6,201.8c-0.2-1-0.7-1.9-1.3-2.7s-1.5-1.3-2.5-1.8c-1-0.4-2.3-0.6-3.8-0.6c-3.4,0-6,1.4-7.5,4.2h-0.1v-3.7h-3.6v23.2
			h3.8v-13.1c0-1,0.1-2,0.4-2.9c0.3-0.9,0.7-1.7,1.3-2.3c0.6-0.7,1.3-1.2,2.1-1.5c0.9-0.4,1.9-0.5,3-0.5c1.5,0,2.6,0.4,3.5,1.3
			c0.8,0.8,1.2,2,1.2,3.4v15.7h3.8v-15.3C-24.2,204-24.4,202.8-24.6,201.8z"/>
		<path d="M-10.9,205.7l9.2-8.5h-5.1l-10.6,10.2v-19h-3.8v32.1h3.8v-8.8l3.6-3.3l8,12.1H-1L-10.9,205.7z"/>
		<path d="M17.9,205.6c-0.3-1.5-0.9-3-1.7-4.3c-0.8-1.3-1.9-2.4-3.3-3.3c-1.4-0.9-3.1-1.3-5.2-1.3c-1.6,0-3,0.3-4.4,0.9
			c-1.3,0.6-2.5,1.4-3.5,2.5c-1,1.1-1.7,2.4-2.3,3.8c-0.5,1.5-0.8,3.1-0.8,4.9c0.1,1.8,0.3,3.4,0.8,4.9c0.5,1.5,1.2,2.8,2.1,3.9
			c0.9,1.1,2.1,1.9,3.4,2.5c1.4,0.6,3,0.9,4.8,0.9c2.6,0,4.8-0.7,6.6-2s2.9-3.3,3.4-5.9h-3.8c-0.3,1.5-1,2.7-2,3.4
			c-1,0.8-2.4,1.1-4,1.1c-1.3,0-2.4-0.2-3.3-0.6c-0.9-0.4-1.7-1-2.3-1.7c-0.6-0.7-1-1.5-1.3-2.4C1,212,0.8,211,0.9,210h17.4
			C18.3,208.6,18.2,207.1,17.9,205.6z M0.9,206.7c0.1-0.9,0.3-1.7,0.6-2.5c0.3-0.8,0.8-1.5,1.3-2.1c0.6-0.6,1.3-1.1,2-1.4
			c0.8-0.3,1.7-0.5,2.7-0.5c1,0,1.8,0.2,2.6,0.5c0.8,0.3,1.5,0.8,2.1,1.4c0.6,0.6,1,1.3,1.4,2.1c0.3,0.8,0.5,1.7,0.6,2.6H0.9z"/>
		<path d="M34,197.3l-6.5,19h-0.1l-6.8-19h-4.3l9.2,23.1l-1.6,3.9c-0.4,0.7-0.8,1.2-1.3,1.6c-0.5,0.4-1.1,0.5-1.9,0.5
			c-0.4,0-0.8-0.1-1.1-0.2c-0.4-0.1-0.8-0.2-1.1-0.4v3.5c0.4,0.2,0.9,0.2,1.3,0.3s0.9,0.1,1.4,0.1c0.9,0,1.6-0.1,2.2-0.3
			c0.6-0.2,1.2-0.6,1.7-1.1c0.5-0.5,1-1.1,1.4-1.9c0.4-0.8,0.9-1.7,1.3-2.9l10.1-26.3H34z"/>
		<path d="M67.4,198.1c-0.7-2-1.6-3.8-2.9-5.4c-1.3-1.6-2.9-2.8-4.8-3.7c-1.9-0.9-4.1-1.4-6.7-1.4c-2.6,0-4.8,0.5-6.7,1.4
			c-1.9,0.9-3.5,2.2-4.8,3.7c-1.3,1.6-2.3,3.3-2.9,5.4c-0.6,2-1,4.1-1,6.3s0.3,4.3,1,6.3c0.6,2,1.6,3.8,2.9,5.4
			c1.3,1.6,2.9,2.8,4.8,3.7c1.9,0.9,4.1,1.4,6.7,1.4c2.5,0,4.8-0.5,6.7-1.4c1.9-0.9,3.5-2.1,4.8-3.7c1.3-1.6,2.2-3.4,2.9-5.4
			c0.6-2,1-4.1,1-6.3S68,200.2,67.4,198.1z M63.5,209.2c-0.4,1.6-1.1,3-2,4.2c-0.9,1.3-2.1,2.3-3.5,3c-1.4,0.8-3.1,1.1-5,1.1
			c-2,0-3.6-0.4-5-1.1c-1.4-0.8-2.6-1.8-3.5-3c-0.9-1.3-1.6-2.7-2-4.2c-0.4-1.6-0.6-3.2-0.6-4.8s0.2-3.2,0.6-4.8
			c0.4-1.6,1.1-3,2-4.2c0.9-1.3,2-2.3,3.5-3c1.4-0.8,3.1-1.2,5-1.2c1.9,0,3.6,0.4,5,1.2c1.4,0.8,2.6,1.8,3.5,3
			c0.9,1.3,1.6,2.7,2,4.2c0.4,1.6,0.6,3.2,0.6,4.8S63.9,207.7,63.5,209.2z"/>
		<path d="M91.9,204.3c-0.5-1.5-1.1-2.8-2-3.9c-0.9-1.1-2-2-3.3-2.7c-1.3-0.7-2.9-1-4.7-1c-1.6,0-3.1,0.3-4.5,0.9
			c-1.4,0.6-2.3,1.5-3,2.8h-0.1v-3.1h-3.8v32.1h3.8v-12h0.1c0.4,0.7,0.9,1.3,1.6,1.7c0.6,0.5,1.3,0.8,2,1.1c0.7,0.3,1.4,0.5,2.1,0.6
			c0.7,0.1,1.3,0.2,1.9,0.2c1.8,0,3.3-0.3,4.7-1c1.3-0.6,2.4-1.5,3.3-2.6c0.9-1.1,1.6-2.4,2-3.9c0.4-1.5,0.6-3,0.6-4.7
			C92.6,207.3,92.3,205.7,91.9,204.3z M88.2,212c-0.2,1.1-0.6,2-1.2,2.9c-0.5,0.8-1.2,1.5-2.1,2c-0.9,0.5-2,0.8-3.3,0.8
			c-1.3,0-2.4-0.2-3.4-0.7c-0.9-0.5-1.7-1.1-2.3-2c-0.6-0.8-1-1.7-1.3-2.8c-0.3-1.1-0.4-2.2-0.4-3.3c0-1.1,0.1-2.1,0.4-3.2
			c0.3-1,0.7-2,1.2-2.8c0.6-0.8,1.3-1.5,2.2-2c0.9-0.5,2-0.8,3.3-0.8c1.2,0,2.3,0.2,3.2,0.7c0.9,0.5,1.7,1.1,2.2,1.9
			c0.6,0.8,1,1.7,1.3,2.8c0.3,1,0.4,2.1,0.4,3.2C88.5,209.8,88.4,210.9,88.2,212z"/>
		<path d="M114.6,210c0.1-1.4-0.1-2.9-0.4-4.5c-0.3-1.5-0.9-3-1.7-4.3c-0.8-1.3-1.9-2.4-3.3-3.3c-0.6-0.4-1.3-0.7-2.1-0.9
			c-0.9-0.2-1.9-0.4-3-0.4c-1.6,0-3,0.3-4.4,0.9c-1.3,0.6-2.5,1.4-3.5,2.5c-1,1.1-1.7,2.4-2.3,3.8c-0.5,1.5-0.8,3.1-0.8,4.9
			c0.1,1.8,0.3,3.4,0.8,4.9c0.5,1.5,1.2,2.8,2.1,3.9c0.9,1.1,2.1,1.9,3.4,2.5c1.1,0.5,2.4,0.8,3.8,0.9c0.3,0,0.7,0,1,0
			c2.6,0,4.8-0.7,6.6-2s2.9-3.3,3.4-5.9h-3.8c-0.3,1.5-1,2.7-2.1,3.4c-0.7,0.5-1.6,0.9-2.6,1c-0.4,0.1-0.9,0.1-1.4,0.1
			c-1.3,0-2.3-0.2-3.3-0.6c-0.9-0.4-1.7-1-2.3-1.7c-0.6-0.7-1-1.5-1.3-2.4c-0.3-0.9-0.4-1.9-0.4-2.9H114.6z M97.2,206.7
			c0.1-0.9,0.3-1.7,0.6-2.5c0.3-0.8,0.8-1.5,1.4-2.1c0.6-0.6,1.2-1.1,2-1.4c0.8-0.3,1.7-0.5,2.7-0.5c1,0,1.8,0.2,2.6,0.5
			c0.5,0.2,1,0.5,1.5,0.9c0.2,0.2,0.4,0.3,0.6,0.5c0.6,0.6,1,1.3,1.4,2.1c0.3,0.8,0.5,1.7,0.6,2.6H97.2z"/>
		<path d="M123.1,198c-1.3,0.9-2.5,2.3-3.4,4.2h-0.1v-4.9H116v23.2h3.8v-10.3c0-1.5,0.1-2.8,0.4-4c0.3-1.1,0.8-2.1,1.4-2.9
			c0.7-0.8,1.5-1.4,2.6-1.8c1.1-0.4,2.4-0.6,3.9-0.6v-4C126.1,196.7,124.4,197.1,123.1,198z"/>
		<path d="M147.9,217.7c-0.6,0-1-0.2-1.1-0.6c-0.1-0.4-0.1-1.1-0.1-2v-12c0-1.3-0.3-2.4-0.8-3.3c-0.5-0.8-1.2-1.5-2-2
			c-0.8-0.5-1.8-0.8-2.8-0.9c-1-0.2-2.1-0.2-3.1-0.2c-1.3,0-2.5,0.1-3.7,0.4c-1.2,0.3-2.2,0.7-3.1,1.3c-0.9,0.6-1.6,1.4-2.2,2.4
			c-0.5,1-0.8,2.2-0.9,3.7h3.8c0.1-1.7,0.7-2.9,1.8-3.5c1.1-0.6,2.4-0.9,4-0.9c0.6,0,1.2,0,1.8,0.1c0.6,0.1,1.2,0.3,1.7,0.5
			c0.5,0.3,0.9,0.7,1.2,1.2c0.3,0.5,0.5,1.2,0.5,2c0,0.7-0.2,1.3-0.6,1.6c-0.4,0.4-1,0.7-1.7,0.9c-0.7,0.2-1.5,0.3-2.5,0.5
			c-0.9,0.1-1.9,0.3-3,0.5c-1,0.2-2,0.4-2.9,0.7c-0.9,0.3-1.8,0.7-2.5,1.2c-0.7,0.5-1.3,1.2-1.8,2c-0.4,0.8-0.7,1.9-0.7,3.2
			c0,1.2,0.2,2.2,0.6,3c0.4,0.8,1,1.5,1.7,2c0.7,0.5,1.5,0.9,2.5,1.1c0.9,0.2,1.9,0.3,3,0.3c1.6,0,3.1-0.3,4.5-0.8
			c1.4-0.5,2.6-1.5,3.7-2.7c0,1.3,0.3,2.2,0.9,2.7c0.6,0.6,1.4,0.8,2.4,0.8c1.2,0,2.1-0.2,2.7-0.6v-3
			C148.6,217.6,148.2,217.7,147.9,217.7z M142.8,212.4c0,0.5-0.1,1.1-0.4,1.7c-0.3,0.6-0.7,1.2-1.3,1.7c-0.6,0.5-1.3,1-2.2,1.3
			c-0.9,0.3-2,0.5-3.2,0.5c-0.6,0-1.1-0.1-1.7-0.2c-0.5-0.1-1-0.3-1.4-0.6c-0.4-0.3-0.7-0.6-1-1.1c-0.3-0.4-0.4-1-0.4-1.6
			c0-1,0.2-1.7,0.7-2.3c0.4-0.5,1-1,1.7-1.3s1.5-0.5,2.3-0.7c0.9-0.1,1.7-0.3,2.6-0.4c0.9-0.1,1.7-0.2,2.5-0.4
			c0.8-0.2,1.4-0.4,1.9-0.8V212.4z"/>
	</g>
	<path class="st4" d="M-96.5,259.9v3.1h0.1c0.8-1.2,1.9-2.1,3-2.8c1.2-0.7,2.5-1,4.1-1c1.5,0,2.8,0.3,4,0.9c1.2,0.6,2.1,1.6,2.8,3
		c0.7-1,1.6-1.9,2.8-2.7c1.2-0.8,2.6-1.2,4.2-1.2c1.2,0,2.4,0.2,3.4,0.5c1,0.3,1.9,0.8,2.7,1.4c0.7,0.7,1.3,1.5,1.8,2.6
		c0.4,1.1,0.6,2.3,0.6,3.8v15.6h-6.4V270c0-0.8,0-1.5-0.1-2.2c-0.1-0.7-0.2-1.3-0.5-1.8c-0.3-0.5-0.7-0.9-1.2-1.2
		c-0.5-0.3-1.2-0.4-2.1-0.4c-0.9,0-1.6,0.2-2.2,0.5c-0.6,0.3-1,0.8-1.3,1.3s-0.5,1.2-0.6,1.9c-0.1,0.7-0.2,1.4-0.2,2.1v12.9h-6.4
		v-13c0-0.7,0-1.4,0-2c0-0.7-0.2-1.3-0.4-1.9s-0.6-1-1.1-1.4c-0.5-0.3-1.3-0.5-2.3-0.5c-0.3,0-0.7,0.1-1.2,0.2
		c-0.5,0.1-1,0.4-1.4,0.8c-0.5,0.4-0.9,0.9-1.2,1.6c-0.3,0.7-0.5,1.6-0.5,2.8v13.5h-6.4v-23.2H-96.5z"/>
	<path class="st4" d="M-64.5,266.5c0.6-1.5,1.4-2.8,2.4-3.9c1-1.1,2.3-1.9,3.8-2.5c1.5-0.6,3.1-0.9,4.9-0.9c1.8,0,3.5,0.3,5,0.9
		c1.5,0.6,2.7,1.4,3.8,2.5c1,1.1,1.9,2.4,2.4,3.9c0.6,1.5,0.9,3.2,0.9,5.1s-0.3,3.5-0.9,5c-0.6,1.5-1.4,2.8-2.4,3.8
		c-1,1.1-2.3,1.9-3.8,2.5c-1.5,0.6-3.1,0.9-5,0.9c-1.8,0-3.5-0.3-4.9-0.9c-1.5-0.6-2.7-1.4-3.8-2.5c-1-1.1-1.9-2.3-2.4-3.8
		c-0.6-1.5-0.9-3.2-0.9-5S-65.1,268-64.5,266.5z M-58.7,274.3c0.2,0.9,0.5,1.7,0.9,2.4c0.4,0.7,1,1.3,1.7,1.7
		c0.7,0.4,1.6,0.6,2.7,0.6s2-0.2,2.7-0.6c0.7-0.4,1.3-1,1.8-1.7c0.4-0.7,0.7-1.5,0.9-2.4c0.2-0.9,0.3-1.8,0.3-2.7
		c0-0.9-0.1-1.8-0.3-2.7c-0.2-0.9-0.5-1.7-0.9-2.4c-0.4-0.7-1-1.3-1.8-1.7c-0.7-0.4-1.6-0.7-2.7-0.7s-2,0.2-2.7,0.7
		c-0.7,0.4-1.3,1-1.7,1.7c-0.4,0.7-0.7,1.5-0.9,2.4c-0.2,0.9-0.3,1.8-0.3,2.7C-59,272.5-58.9,273.4-58.7,274.3z"/>
	<path class="st4" d="M-33.6,259.9v3.2h0.1c0.8-1.3,1.9-2.3,3.1-2.9c1.3-0.6,2.6-0.9,4-0.9c1.7,0,3.1,0.2,4.2,0.7
		c1.1,0.5,2,1.1,2.6,1.9s1.1,1.8,1.3,3c0.3,1.2,0.4,2.5,0.4,3.9v14.3h-6.4V270c0-1.9-0.3-3.3-0.9-4.3s-1.7-1.4-3.2-1.4
		c-1.7,0-3,0.5-3.8,1.6c-0.8,1-1.2,2.7-1.2,5.1v12.2h-6.4v-23.2H-33.6z"/>
	<path class="st4" d="M-8.7,251.1v17.2l8-8.4h7.6l-8.8,8.5l9.8,14.7H0.2l-6.4-10.4l-2.5,2.4v8h-6.4v-32.1H-8.7z"/>
	<path class="st4" d="M13.4,277.6c1,0.9,2.3,1.4,4.1,1.4c1.3,0,2.4-0.3,3.3-1c0.9-0.6,1.5-1.3,1.7-2h5.6c-0.9,2.8-2.3,4.8-4.1,6
		c-1.9,1.2-4.1,1.8-6.7,1.8c-1.8,0-3.5-0.3-4.9-0.9c-1.5-0.6-2.7-1.4-3.7-2.5s-1.8-2.4-2.4-3.9c-0.6-1.5-0.8-3.1-0.8-4.9
		c0-1.7,0.3-3.4,0.9-4.9c0.6-1.5,1.4-2.8,2.4-3.9c1-1.1,2.3-2,3.8-2.6c1.5-0.6,3.1-0.9,4.8-0.9c2,0,3.7,0.4,5.2,1.1
		c1.5,0.8,2.7,1.8,3.6,3.1c0.9,1.3,1.6,2.8,2,4.4c0.4,1.6,0.6,3.4,0.4,5.2H11.8C11.9,275.2,12.4,276.7,13.4,277.6z M20.6,265.4
		c-0.8-0.8-1.9-1.3-3.5-1.3c-1,0-1.9,0.2-2.5,0.5c-0.7,0.3-1.2,0.8-1.6,1.3c-0.4,0.5-0.7,1-0.9,1.6c-0.2,0.6-0.3,1.1-0.3,1.5h10.4
		C21.9,267.4,21.4,266.2,20.6,265.4z"/>
	<path class="st4" d="M37.9,290.1c-1.2,0.8-2.9,1.2-5.1,1.2c-0.7,0-1.3,0-2-0.1c-0.6,0-1.3-0.1-2-0.2v-5.3c0.6,0.1,1.2,0.1,1.8,0.2
		c0.6,0.1,1.3,0.1,1.9,0c0.8-0.1,1.5-0.4,1.9-1s0.6-1.2,0.6-1.9c0-0.5-0.1-1-0.3-1.4l-8.1-21.8h6.8l5.3,15.9h0.1l5.1-15.9h6.6
		L40.8,286C40.1,287.9,39.1,289.3,37.9,290.1z"/>
	<path class="st5" d="M50.8,260.6c0.7-2.1,1.8-3.8,3.1-5.4c1.3-1.5,3-2.7,5-3.6c2-0.9,4.2-1.3,6.6-1.3c2.5,0,4.7,0.4,6.7,1.3
		c1.9,0.9,3.6,2.1,4.9,3.6c1.3,1.5,2.4,3.3,3.1,5.4c0.7,2.1,1.1,4.3,1.1,6.7c0,2.3-0.4,4.5-1.1,6.5c-0.7,2-1.8,3.8-3.1,5.3
		c-1.3,1.5-3,2.7-4.9,3.5c-1.9,0.9-4.2,1.3-6.7,1.3c-2.5,0-4.7-0.4-6.6-1.3c-2-0.9-3.6-2-5-3.5c-1.3-1.5-2.4-3.3-3.1-5.3
		c-0.7-2-1.1-4.2-1.1-6.5C49.8,264.8,50.1,262.6,50.8,260.6z M57.3,271.2c0.3,1.3,0.8,2.4,1.5,3.4c0.7,1,1.6,1.8,2.7,2.5
		c1.1,0.6,2.5,0.9,4,0.9c1.6,0,2.9-0.3,4-0.9c1.1-0.6,2-1.4,2.7-2.5c0.7-1,1.2-2.2,1.5-3.4c0.3-1.3,0.5-2.6,0.5-3.9
		c0-1.4-0.2-2.8-0.5-4.1c-0.3-1.3-0.8-2.5-1.5-3.5c-0.7-1-1.6-1.9-2.7-2.5c-1.1-0.6-2.5-0.9-4-0.9c-1.6,0-2.9,0.3-4,0.9
		c-1.1,0.6-2,1.4-2.7,2.5c-0.7,1-1.2,2.2-1.5,3.5c-0.3,1.3-0.5,2.7-0.5,4.1C56.8,268.6,57,269.9,57.3,271.2z"/>
	<path class="st4" d="M89.3,259.9v3h0.1c0.8-1.3,1.8-2.2,3-2.7c1.2-0.6,2.5-0.9,4-0.9c1.8,0,3.4,0.3,4.7,1c1.3,0.7,2.4,1.6,3.3,2.7
		c0.9,1.1,1.5,2.5,1.9,4c0.4,1.5,0.6,3.1,0.6,4.7c0,1.6-0.2,3.1-0.6,4.5c-0.4,1.4-1.1,2.7-1.9,3.8c-0.9,1.1-1.9,2-3.2,2.7
		c-1.3,0.7-2.8,1-4.5,1c-1.4,0-2.8-0.3-4-0.9s-2.2-1.4-3-2.6h-0.1v11h-6.4v-31.4H89.3z M97.6,278.4c0.7-0.4,1.3-1,1.7-1.6
		c0.4-0.7,0.7-1.5,0.9-2.4s0.3-1.8,0.3-2.7s-0.1-1.8-0.3-2.7c-0.2-0.9-0.5-1.7-1-2.4s-1-1.3-1.7-1.7c-0.7-0.4-1.6-0.7-2.6-0.7
		c-1,0-1.9,0.2-2.6,0.7c-0.7,0.4-1.3,1-1.7,1.7c-0.4,0.7-0.7,1.5-0.9,2.4c-0.2,0.9-0.3,1.8-0.3,2.8c0,0.9,0.1,1.8,0.3,2.7
		c0.2,0.9,0.5,1.7,0.9,2.4c0.4,0.7,1,1.2,1.7,1.6c0.7,0.4,1.6,0.6,2.6,0.6C96,279,96.9,278.8,97.6,278.4z"/>
	<path class="st4" d="M115.2,277.6c1,0.9,2.3,1.4,4.1,1.4c1.3,0,2.4-0.3,3.3-1c0.9-0.6,1.5-1.3,1.7-2h5.6c-0.9,2.8-2.3,4.8-4.1,6
		c-1.9,1.2-4.1,1.8-6.7,1.8c-1.8,0-3.5-0.3-4.9-0.9c-1.5-0.6-2.7-1.4-3.7-2.5s-1.8-2.4-2.4-3.9c-0.6-1.5-0.8-3.1-0.8-4.9
		c0-1.7,0.3-3.4,0.9-4.9c0.6-1.5,1.4-2.8,2.4-3.9c1-1.1,2.3-2,3.8-2.6c1.5-0.6,3.1-0.9,4.8-0.9c2,0,3.7,0.4,5.2,1.1
		c1.5,0.8,2.7,1.8,3.6,3.1c0.9,1.3,1.6,2.8,2,4.4c0.4,1.6,0.6,3.4,0.5,5.2h-16.8C113.7,275.2,114.3,276.7,115.2,277.6z M122.4,265.4
		c-0.8-0.8-1.9-1.3-3.5-1.3c-1,0-1.9,0.2-2.5,0.5c-0.7,0.3-1.2,0.8-1.6,1.3c-0.4,0.5-0.7,1-0.9,1.6c-0.2,0.6-0.3,1.1-0.3,1.5H124
		C123.7,267.4,123.2,266.2,122.4,265.4z"/>
	<path class="st4" d="M137.9,259.9v4.3h0.1c0.3-0.7,0.7-1.4,1.2-2s1.1-1.1,1.8-1.6c0.7-0.4,1.4-0.8,2.1-1c0.7-0.2,1.5-0.4,2.3-0.4
		c0.4,0,0.9,0.1,1.4,0.2v5.9c-0.3-0.1-0.7-0.1-1.1-0.2s-0.8-0.1-1.2-0.1c-1.2,0-2.2,0.2-3,0.6c-0.8,0.4-1.5,0.9-2,1.6
		c-0.5,0.7-0.8,1.5-1.1,2.4c-0.2,0.9-0.3,1.9-0.3,2.9v10.5h-6.4v-23.2H137.9z"/>
	<path class="st4" d="M148.1,263.3c0.7-1,1.5-1.8,2.5-2.4c1-0.6,2.2-1,3.4-1.3c1.3-0.3,2.6-0.4,3.8-0.4c1.2,0,2.4,0.1,3.6,0.2
		c1.2,0.2,2.3,0.5,3.3,1c1,0.5,1.8,1.1,2.4,2s0.9,2,0.9,3.4V278c0,1,0.1,2.1,0.2,3c0.1,1,0.3,1.7,0.6,2.2h-6.5
		c-0.1-0.4-0.2-0.7-0.3-1.1c-0.1-0.4-0.1-0.8-0.2-1.1c-1,1-2.2,1.8-3.6,2.2c-1.4,0.4-2.8,0.6-4.2,0.6c-1.1,0-2.1-0.1-3.1-0.4
		c-1-0.3-1.8-0.7-2.5-1.3c-0.7-0.6-1.3-1.3-1.7-2.2c-0.4-0.9-0.6-1.9-0.6-3.1c0-1.3,0.2-2.4,0.7-3.3c0.5-0.9,1.1-1.5,1.8-2
		c0.7-0.5,1.6-0.9,2.5-1.1c0.9-0.3,1.9-0.5,2.9-0.6c1-0.1,1.9-0.3,2.8-0.4c0.9-0.1,1.8-0.2,2.5-0.4c0.7-0.2,1.3-0.4,1.7-0.8
		c0.4-0.3,0.6-0.8,0.6-1.5c0-0.7-0.1-1.2-0.3-1.6c-0.2-0.4-0.5-0.7-0.9-0.9c-0.4-0.2-0.8-0.4-1.3-0.5c-0.5-0.1-1-0.1-1.6-0.1
		c-1.3,0-2.2,0.3-3,0.8c-0.7,0.5-1.1,1.4-1.3,2.7H147C147,265.6,147.4,264.3,148.1,263.3z M160.7,272.3c-0.4,0.1-0.8,0.2-1.3,0.3
		c-0.5,0.1-1,0.2-1.5,0.2c-0.5,0.1-1,0.1-1.5,0.2c-0.5,0.1-1,0.2-1.4,0.4c-0.5,0.2-0.9,0.4-1.2,0.6c-0.3,0.3-0.6,0.6-0.8,1
		c-0.2,0.4-0.3,0.9-0.3,1.5c0,0.6,0.1,1,0.3,1.4c0.2,0.4,0.5,0.7,0.9,0.9c0.4,0.2,0.8,0.4,1.3,0.5c0.5,0.1,1,0.1,1.5,0.1
		c1.3,0,2.2-0.2,2.9-0.6c0.7-0.4,1.2-0.9,1.5-1.5c0.3-0.6,0.5-1.2,0.6-1.8c0.1-0.6,0.1-1.1,0.1-1.4v-2.4
		C161.4,272,161.1,272.2,160.7,272.3z"/>
	<text transform="matrix(1 0 0 1 -105.1 385.4005)" class="st1 st3" style="font-family:'Neucha';">monkeyOpera</text>
</g>
<g id="Layer_4" class="st0">
	
		<ellipse transform="matrix(0.9969 -7.917096e-02 7.917096e-02 0.9969 -11.8137 4.5718)" class="st6" cx="51.7" cy="151.3" rx="136.4" ry="51"/>
	<path class="st5" d="M-76.3,132.2v3.1h0.1c0.8-1.2,1.9-2.1,3-2.8c1.2-0.7,2.5-1,4.1-1c1.5,0,2.8,0.3,4,0.9c1.2,0.6,2.1,1.6,2.8,3
		c0.7-1,1.6-1.9,2.8-2.7c1.2-0.8,2.6-1.2,4.2-1.2c1.2,0,2.4,0.2,3.4,0.5c1,0.3,1.9,0.8,2.7,1.4c0.7,0.7,1.3,1.5,1.8,2.6
		c0.4,1.1,0.6,2.3,0.6,3.8v15.6h-6.4v-13.2c0-0.8,0-1.5-0.1-2.2c-0.1-0.7-0.2-1.3-0.5-1.8c-0.3-0.5-0.7-0.9-1.2-1.2
		c-0.5-0.3-1.2-0.4-2.1-0.4c-0.9,0-1.6,0.2-2.2,0.5c-0.6,0.3-1,0.8-1.3,1.3s-0.5,1.2-0.6,1.9c-0.1,0.7-0.2,1.4-0.2,2.1v12.9h-6.4
		v-13c0-0.7,0-1.4,0-2c0-0.7-0.2-1.3-0.4-1.9s-0.6-1-1.1-1.4c-0.5-0.3-1.3-0.5-2.3-0.5c-0.3,0-0.7,0.1-1.2,0.2
		c-0.5,0.1-1,0.4-1.4,0.8c-0.5,0.4-0.9,0.9-1.2,1.6c-0.3,0.7-0.5,1.6-0.5,2.8v13.5h-6.4v-23.2H-76.3z"/>
	<path class="st5" d="M-44.4,138.8c0.6-1.5,1.4-2.8,2.4-3.9c1-1.1,2.3-1.9,3.8-2.5c1.5-0.6,3.1-0.9,4.9-0.9c1.8,0,3.5,0.3,5,0.9
		c1.5,0.6,2.7,1.4,3.8,2.5c1,1.1,1.9,2.4,2.4,3.9c0.6,1.5,0.9,3.2,0.9,5.1s-0.3,3.5-0.9,5c-0.6,1.5-1.4,2.8-2.4,3.8
		c-1,1.1-2.3,1.9-3.8,2.5c-1.5,0.6-3.1,0.9-5,0.9c-1.8,0-3.5-0.3-4.9-0.9c-1.5-0.6-2.7-1.4-3.8-2.5c-1-1.1-1.9-2.3-2.4-3.8
		c-0.6-1.5-0.9-3.2-0.9-5S-44.9,140.3-44.4,138.8z M-38.6,146.6c0.2,0.9,0.5,1.7,0.9,2.4c0.4,0.7,1,1.3,1.7,1.7
		c0.7,0.4,1.6,0.6,2.7,0.6s2-0.2,2.7-0.6c0.7-0.4,1.3-1,1.8-1.7c0.4-0.7,0.7-1.5,0.9-2.4c0.2-0.9,0.3-1.8,0.3-2.7
		c0-0.9-0.1-1.8-0.3-2.7c-0.2-0.9-0.5-1.7-0.9-2.4c-0.4-0.7-1-1.3-1.8-1.7c-0.7-0.4-1.6-0.7-2.7-0.7s-2,0.2-2.7,0.7
		c-0.7,0.4-1.3,1-1.7,1.7c-0.4,0.7-0.7,1.5-0.9,2.4c-0.2,0.9-0.3,1.8-0.3,2.7C-38.8,144.8-38.7,145.7-38.6,146.6z"/>
	<path class="st5" d="M-13.5,132.2v3.2h0.1c0.8-1.3,1.9-2.3,3.1-2.9c1.3-0.6,2.6-0.9,4-0.9c1.7,0,3.1,0.2,4.2,0.7
		c1.1,0.5,2,1.1,2.6,1.9s1.1,1.8,1.3,3c0.3,1.2,0.4,2.5,0.4,3.9v14.3h-6.4v-13.1c0-1.9-0.3-3.3-0.9-4.3s-1.7-1.4-3.2-1.4
		c-1.7,0-3,0.5-3.8,1.6c-0.8,1-1.2,2.7-1.2,5.1v12.2h-6.4v-23.2H-13.5z"/>
	<path class="st5" d="M11.4,123.3v17.2l8-8.4H27l-8.8,8.5l9.8,14.7h-7.7l-6.4-10.4l-2.5,2.4v8H5v-32.1H11.4z"/>
	<path class="st5" d="M33.5,149.9c1,0.9,2.3,1.4,4.1,1.4c1.3,0,2.4-0.3,3.3-1c0.9-0.6,1.5-1.3,1.7-2h5.6c-0.9,2.8-2.3,4.8-4.1,6
		c-1.9,1.2-4.1,1.8-6.7,1.8c-1.8,0-3.5-0.3-4.9-0.9c-1.5-0.6-2.7-1.4-3.7-2.5s-1.8-2.4-2.4-3.9c-0.6-1.5-0.8-3.1-0.8-4.9
		c0-1.7,0.3-3.4,0.9-4.9c0.6-1.5,1.4-2.8,2.4-3.9c1-1.1,2.3-2,3.8-2.6c1.5-0.6,3.1-0.9,4.8-0.9c2,0,3.7,0.4,5.2,1.1
		c1.5,0.8,2.7,1.8,3.6,3.1c0.9,1.3,1.6,2.8,2,4.4c0.4,1.6,0.6,3.4,0.4,5.2H31.9C32,147.4,32.6,148.9,33.5,149.9z M40.7,137.6
		c-0.8-0.8-1.9-1.3-3.5-1.3c-1,0-1.9,0.2-2.5,0.5c-0.7,0.3-1.2,0.8-1.6,1.3c-0.4,0.5-0.7,1-0.9,1.6c-0.2,0.6-0.3,1.1-0.3,1.5h10.4
		C42,139.7,41.5,138.5,40.7,137.6z"/>
	<path class="st5" d="M58,162.4c-1.2,0.8-2.9,1.2-5.1,1.2c-0.7,0-1.3,0-2-0.1c-0.6,0-1.3-0.1-2-0.2v-5.3c0.6,0.1,1.2,0.1,1.8,0.2
		c0.6,0.1,1.3,0.1,1.9,0c0.8-0.1,1.5-0.4,1.9-1s0.6-1.2,0.6-1.9c0-0.5-0.1-1-0.3-1.4l-8.1-21.8h6.8l5.3,15.9h0.1l5.1-15.9h6.6
		l-9.7,26.1C60.2,160.2,59.2,161.6,58,162.4z"/>
	<path class="st5" d="M115.7,132.2v3h0.1c0.8-1.3,1.8-2.2,3-2.7c1.2-0.6,2.5-0.9,4-0.9c1.8,0,3.4,0.3,4.7,1c1.3,0.7,2.4,1.6,3.3,2.7
		c0.9,1.1,1.5,2.5,1.9,4c0.4,1.5,0.6,3.1,0.6,4.7c0,1.6-0.2,3.1-0.6,4.5c-0.4,1.4-1.1,2.7-1.9,3.8c-0.9,1.1-1.9,2-3.2,2.7
		c-1.3,0.7-2.8,1-4.5,1c-1.4,0-2.8-0.3-4-0.9s-2.2-1.4-3-2.6H116v11h-6.4v-31.4H115.7z M124,150.6c0.7-0.4,1.3-1,1.7-1.6
		c0.4-0.7,0.7-1.5,0.9-2.4s0.3-1.8,0.3-2.7s-0.1-1.8-0.3-2.7c-0.2-0.9-0.5-1.7-1-2.4s-1-1.3-1.7-1.7c-0.7-0.4-1.6-0.7-2.6-0.7
		c-1,0-1.9,0.2-2.6,0.7c-0.7,0.4-1.3,1-1.7,1.7c-0.4,0.7-0.7,1.5-0.9,2.4c-0.2,0.9-0.3,1.8-0.3,2.8c0,0.9,0.1,1.8,0.3,2.7
		c0.2,0.9,0.5,1.7,0.9,2.4c0.4,0.7,1,1.2,1.7,1.6c0.7,0.4,1.6,0.6,2.6,0.6C122.4,151.3,123.3,151.1,124,150.6z"/>
	<path class="st5" d="M141.6,149.9c1,0.9,2.3,1.4,4.1,1.4c1.3,0,2.4-0.3,3.3-1c0.9-0.6,1.5-1.3,1.7-2h5.6c-0.9,2.8-2.3,4.8-4.1,6
		c-1.9,1.2-4.1,1.8-6.7,1.8c-1.8,0-3.5-0.3-4.9-0.9c-1.5-0.6-2.7-1.4-3.7-2.5s-1.8-2.4-2.4-3.9c-0.6-1.5-0.8-3.1-0.8-4.9
		c0-1.7,0.3-3.4,0.9-4.9c0.6-1.5,1.4-2.8,2.4-3.9c1-1.1,2.3-2,3.8-2.6c1.5-0.6,3.1-0.9,4.8-0.9c2,0,3.7,0.4,5.2,1.1
		c1.5,0.8,2.7,1.8,3.6,3.1c0.9,1.3,1.6,2.8,2,4.4c0.4,1.6,0.6,3.4,0.5,5.2h-16.8C140.2,147.4,140.7,148.9,141.6,149.9z M148.9,137.6
		c-0.8-0.8-1.9-1.3-3.5-1.3c-1,0-1.9,0.2-2.5,0.5c-0.7,0.3-1.2,0.8-1.6,1.3c-0.4,0.5-0.7,1-0.9,1.6c-0.2,0.6-0.3,1.1-0.3,1.5h10.4
		C150.2,139.7,149.6,138.5,148.9,137.6z"/>
	<path class="st5" d="M164.3,132.2v4.3h0.1c0.3-0.7,0.7-1.4,1.2-2s1.1-1.1,1.8-1.6c0.7-0.4,1.4-0.8,2.1-1c0.7-0.2,1.5-0.4,2.3-0.4
		c0.4,0,0.9,0.1,1.4,0.2v5.9c-0.3-0.1-0.7-0.1-1.1-0.2s-0.8-0.1-1.2-0.1c-1.2,0-2.2,0.2-3,0.6c-0.8,0.4-1.5,0.9-2,1.6
		c-0.5,0.7-0.8,1.5-1.1,2.4c-0.2,0.9-0.3,1.9-0.3,2.9v10.5h-6.4v-23.2H164.3z"/>
	<path class="st5" d="M174.5,135.6c0.7-1,1.5-1.8,2.5-2.4c1-0.6,2.2-1,3.4-1.3c1.3-0.3,2.6-0.4,3.8-0.4c1.2,0,2.4,0.1,3.6,0.2
		c1.2,0.2,2.3,0.5,3.3,1c1,0.5,1.8,1.1,2.4,2s0.9,2,0.9,3.4v12.1c0,1,0.1,2.1,0.2,3c0.1,1,0.3,1.7,0.6,2.2h-6.5
		c-0.1-0.4-0.2-0.7-0.3-1.1c-0.1-0.4-0.1-0.8-0.2-1.1c-1,1-2.2,1.8-3.6,2.2c-1.4,0.4-2.8,0.6-4.2,0.6c-1.1,0-2.1-0.1-3.1-0.4
		c-1-0.3-1.8-0.7-2.5-1.3c-0.7-0.6-1.3-1.3-1.7-2.2c-0.4-0.9-0.6-1.9-0.6-3.1c0-1.3,0.2-2.4,0.7-3.3c0.5-0.9,1.1-1.5,1.8-2
		c0.7-0.5,1.6-0.9,2.5-1.1c0.9-0.3,1.9-0.5,2.9-0.6c1-0.1,1.9-0.3,2.8-0.4c0.9-0.1,1.8-0.2,2.5-0.4c0.7-0.2,1.3-0.4,1.7-0.8
		c0.4-0.3,0.6-0.8,0.6-1.5c0-0.7-0.1-1.2-0.3-1.6c-0.2-0.4-0.5-0.7-0.9-0.9c-0.4-0.2-0.8-0.4-1.3-0.5c-0.5-0.1-1-0.1-1.6-0.1
		c-1.3,0-2.2,0.3-3,0.8c-0.7,0.5-1.1,1.4-1.3,2.7h-6.4C173.5,137.9,173.8,136.6,174.5,135.6z M187.1,144.6c-0.4,0.1-0.8,0.2-1.3,0.3
		c-0.5,0.1-1,0.2-1.5,0.2c-0.5,0.1-1,0.1-1.5,0.2c-0.5,0.1-1,0.2-1.4,0.4c-0.5,0.2-0.9,0.4-1.2,0.6c-0.3,0.3-0.6,0.6-0.8,1
		c-0.2,0.4-0.3,0.9-0.3,1.5c0,0.6,0.1,1,0.3,1.4c0.2,0.4,0.5,0.7,0.9,0.9c0.4,0.2,0.8,0.4,1.3,0.5c0.5,0.1,1,0.1,1.5,0.1
		c1.3,0,2.2-0.2,2.9-0.6c0.7-0.4,1.2-0.9,1.5-1.5c0.3-0.6,0.5-1.2,0.6-1.8c0.1-0.6,0.1-1.1,0.1-1.4v-2.4
		C187.8,144.3,187.5,144.5,187.1,144.6z"/>
	<path class="st5" d="M-44.2,281.1c-0.1-1.5-0.4-2.8-0.9-3.8c-0.5-1-1.1-1.9-1.9-2.5c-0.8-0.6-1.7-1-2.8-1.2
		c-1.1-0.2-2.2-0.3-3.4-0.2c-1.6,0.1-3,0.6-4.1,1.5c-1.1,0.9-2,1.8-2.6,2.9c-0.7-1.4-1.7-2.3-3-2.8c-1.2-0.5-2.6-0.7-4.1-0.6
		c-1.5,0.1-2.8,0.5-4,1.3c-1.1,0.8-2.1,1.8-2.8,3l-0.1,0l-0.2-3.1l-6,0.4l1.7,23.2l6.4-0.5l-1-13.5c-0.1-1.1,0-2.1,0.3-2.8
		c0.3-0.7,0.6-1.3,1.1-1.7c0.4-0.4,0.9-0.7,1.4-0.9c0.5-0.2,0.9-0.3,1.2-0.3c1-0.1,1.8,0,2.3,0.3c0.5,0.3,1,0.7,1.2,1.3
		c0.3,0.6,0.4,1.2,0.5,1.8c0.1,0.7,0.2,1.3,0.2,2l1,13l6.4-0.5l-1-12.9c0-0.7,0-1.4,0-2.1c0.1-0.7,0.2-1.4,0.5-1.9
		c0.3-0.6,0.7-1.1,1.2-1.4c0.5-0.4,1.2-0.6,2.1-0.7c0.9-0.1,1.6,0,2.2,0.3c0.5,0.3,1,0.6,1.3,1.1c0.3,0.5,0.5,1.1,0.6,1.8
		s0.2,1.4,0.2,2.2l1,13.1l6.4-0.5L-44.2,281.1z"/>
	<path class="st5" d="M-19,282.2c-0.6-1.5-1.4-2.8-2.4-3.9c-1-1.1-2.3-1.9-3.8-2.5c-1.5-0.6-3.1-0.9-5-0.9c-1.8,0-3.5,0.3-4.9,0.9
		c-0.9,0.4-1.8,0.8-2.5,1.4c-0.5,0.3-0.9,0.7-1.3,1.1c-1,1.1-1.9,2.3-2.4,3.9c-0.6,1.5-0.8,3.2-0.8,5.1s0.3,3.5,0.8,5
		s1.4,2.8,2.4,3.8c1.1,1.1,2.3,1.9,3.8,2.5c0.5,0.2,1,0.4,1.6,0.5c1,0.2,2.2,0.4,3.4,0.4c1.8,0,3.5-0.3,5-0.9
		c1.5-0.6,2.8-1.4,3.8-2.5c1.1-1.1,1.9-2.3,2.4-3.8c0.6-1.5,0.8-3.2,0.8-5S-18.4,283.8-19,282.2z M-24.8,290
		c-0.2,0.9-0.5,1.7-0.9,2.4c-0.4,0.7-1,1.3-1.8,1.7c-0.7,0.4-1.6,0.6-2.7,0.6c-1.1,0-2-0.2-2.7-0.6c-0.7-0.4-1.3-1-1.7-1.7
		c-0.4-0.7-0.8-1.5-0.9-2.4c-0.2-0.9-0.3-1.8-0.3-2.7s0.1-1.8,0.3-2.7c0.2-0.9,0.5-1.7,0.9-2.4c0.4-0.7,1-1.3,1.7-1.7
		c0.7-0.4,1.6-0.6,2.7-0.6c1.1,0,2,0.2,2.7,0.6c0.7,0.4,1.3,1,1.8,1.7c0.4,0.7,0.7,1.5,0.9,2.4c0.2,0.9,0.3,1.8,0.3,2.7
		S-24.6,289.1-24.8,290z"/>
	<path class="st5" d="M5.1,281.2C4.9,280,4.5,279,4,278.1c-0.6-0.8-1.4-1.5-2.5-2c-1.1-0.5-2.5-0.8-4.2-0.9c-1.3-0.1-2.7,0.2-4,0.7
		c-1.3,0.5-2.4,1.5-3.3,2.8h-0.1l0.2-3.2l-6.1-0.3l-1.1,23.2l6.4,0.3l0.6-12.2c0.1-2.4,0.6-4,1.4-5c0.8-1,2.1-1.5,3.8-1.4
		c1.5,0.1,2.6,0.6,3.1,1.6c0.5,1,0.8,2.4,0.7,4.3l-0.6,13.1l6.4,0.3l0.7-14.3C5.4,283.7,5.3,282.4,5.1,281.2z"/>
	<path class="st5" d="M20.3,283.1l8.3-9l-7.5,0.4l-7.6,8.8l-1-17.2l-6.4,0.4l1.8,32l6.4-0.4l-0.5-8l2.3-2.5l7,10l7.7-0.4L20.3,283.1
		z"/>
	<path class="st5" d="M51.3,283.7c-0.4-1.6-1.1-3.1-2-4.4s-2.2-2.3-3.6-3.1c-1.5-0.8-3.2-1.1-5.2-1.1c-1.8,0-3.4,0.3-4.8,0.9
		c-1.5,0.6-2.7,1.5-3.8,2.6c-1,1.1-1.9,2.4-2.4,3.9c-0.6,1.5-0.9,3.1-0.9,4.8c0,1.8,0.3,3.5,0.8,5c0.6,1.5,1.3,2.8,2.4,3.9
		c1,1.1,2.3,1.9,3.7,2.5c1.5,0.6,3.1,0.9,5,0.9c2.6,0,4.9-0.6,6.7-1.8c1.9-1.2,3.2-3.2,4.1-6h-5.6c-0.2,0.7-0.8,1.4-1.7,2
		c-0.9,0.7-2,1-3.3,1c-1.8,0-3.2-0.5-4.1-1.4s-1.5-2.4-1.6-4.5h16.8C51.8,287,51.7,285.3,51.3,283.7z M34.9,284.8
		c0-0.5,0.1-1,0.3-1.5c0.2-0.6,0.4-1.1,0.8-1.6c0.4-0.5,0.9-0.9,1.6-1.3c0.7-0.3,1.5-0.5,2.5-0.5c1.6,0,2.7,0.4,3.5,1.3
		c0.8,0.8,1.3,2.1,1.6,3.7H34.9z"/>
	<path class="st5" d="M65,272.4l-5.1,15.9h-0.1l-5.3-15.9h-6.8l8.1,21.8c0.2,0.4,0.3,0.9,0.3,1.4c0,0.7-0.2,1.3-0.6,1.9
		c-0.4,0.6-1,0.9-1.9,1c-0.6,0-1.3,0-1.9-0.1s-1.2-0.1-1.8-0.2v5.3c0.7,0.1,1.3,0.1,2,0.2c0.4,0,0.8,0.1,1.1,0.1c0.3,0,0.5,0,0.8,0
		c2.2,0,3.9-0.4,5.1-1.2c1.2-0.8,2.2-2.2,2.9-4l8.1-21.8l1.6-4.3H65z"/>
	<path class="st5" d="M118.2,277.5c-0.4-3.3-1.3-6.2-2.8-8.9c-1.5-2.7-3.5-5-6.1-6.9c-2.6-1.9-5.7-3.3-9.4-4.1
		c-3.6-0.8-7-0.9-10.2-0.2c-3.2,0.6-6,1.9-8.5,3.7c-2.5,1.8-4.6,4.1-6.3,6.8c0,0,0,0.1-0.1,0.1c-0.8,1.2-1.4,2.5-2,3.9
		c-0.8,1.8-1.4,3.6-1.8,5.6c-0.8,3.4-1,6.8-0.5,10c0.4,3.2,1.3,6.2,2.8,8.8c1.5,2.7,3.6,4.9,6.2,6.8c2.6,1.9,5.7,3.2,9.4,4.1
		c3.7,0.8,7.1,0.9,10.2,0.3c3.2-0.6,6-1.8,8.4-3.6c2.5-1.8,4.6-4,6.3-6.8c1.7-2.8,3-5.9,3.7-9.3
		C118.4,284.2,118.6,280.8,118.2,277.5z M110.6,297.8c-1,1.3-2.4,2.3-4.2,3.2c-1.8,0.8-3.9,1.3-6.5,1.5c-2.6,0.2-5.6-0.1-9.1-0.9
		c-3.5-0.8-6.3-1.8-8.6-3c-2.3-1.2-4-2.6-5.3-4.1c-1.2-1.5-2.1-3-2.4-4.6c-0.4-1.6-0.4-3.2,0-4.7c0.4-1.6,1-3.1,2.1-4.4
		c1-1.3,2.4-2.4,4.2-3.3c1.8-0.8,3.9-1.3,6.5-1.5c2.6-0.2,5.6,0.1,9.1,0.9c3.5,0.8,6.3,1.8,8.6,3c2.3,1.2,4,2.6,5.3,4.1
		c1.2,1.5,2,3.1,2.4,4.7c0.4,1.7,0.3,3.3,0,4.9C112.2,295.1,111.6,296.5,110.6,297.8z"/>
	<path class="st5" d="M125.2,275l0.2,3l0.1,0c0.7-1.3,1.6-2.3,2.8-2.9c1.2-0.6,2.5-1,3.9-1.1c1.8-0.1,3.4,0.1,4.8,0.7
		c1.4,0.6,2.5,1.4,3.5,2.5c0.9,1.1,1.7,2.4,2.2,3.8c0.5,1.5,0.8,3,0.9,4.7c0.1,1.6,0,3.1-0.3,4.5c-0.3,1.5-0.9,2.8-1.7,3.9
		c-0.8,1.2-1.8,2.1-3,2.9c-1.2,0.7-2.7,1.2-4.4,1.3c-1.4,0.1-2.8-0.1-4-0.6s-2.3-1.3-3.1-2.4l-0.1,0l0.7,11l-6.4,0.4l-2-31.3
		L125.2,275z M134.7,292.9c0.7-0.5,1.2-1,1.6-1.7c0.4-0.7,0.6-1.5,0.8-2.4c0.1-0.9,0.2-1.8,0.1-2.8c-0.1-0.9-0.2-1.8-0.5-2.7
		c-0.3-0.9-0.6-1.7-1.1-2.3c-0.5-0.7-1.1-1.2-1.8-1.6c-0.7-0.4-1.6-0.5-2.6-0.5c-1,0.1-1.9,0.3-2.6,0.8c-0.7,0.5-1.2,1.1-1.6,1.8
		c-0.4,0.7-0.6,1.5-0.8,2.4c-0.1,0.9-0.2,1.8-0.1,2.8c0.1,0.9,0.2,1.8,0.5,2.7c0.3,0.9,0.6,1.7,1.1,2.3c0.5,0.6,1.1,1.2,1.8,1.5
		c0.7,0.4,1.6,0.5,2.6,0.5C133.1,293.6,134,293.4,134.7,292.9z"/>
	<path class="st5" d="M151.6,292c0.9,1,2.2,1.6,4,1.7c1.3,0.1,2.4-0.1,3.4-0.7c1-0.6,1.6-1.2,1.9-1.9l5.6,0.4
		c-1.1,2.7-2.6,4.6-4.6,5.6c-1.9,1-4.2,1.5-6.9,1.3c-1.8-0.1-3.4-0.6-4.9-1.3c-1.4-0.7-2.6-1.6-3.5-2.8s-1.6-2.5-2-4
		c-0.4-1.5-0.6-3.2-0.4-5c0.1-1.7,0.5-3.3,1.2-4.8c0.7-1.4,1.6-2.7,2.7-3.7c1.1-1,2.4-1.8,3.9-2.3c1.5-0.5,3.1-0.7,4.9-0.6
		c2,0.2,3.7,0.7,5.1,1.5c1.4,0.9,2.5,2,3.4,3.4c0.8,1.4,1.4,2.9,1.7,4.6c0.3,1.7,0.3,3.4,0,5.2l-16.7-1.3
		C150.4,289.5,150.8,291,151.6,292z M159.8,280.4c-0.7-0.9-1.8-1.4-3.4-1.5c-1-0.1-1.9,0-2.6,0.3c-0.7,0.3-1.3,0.7-1.7,1.2
		c-0.4,0.5-0.8,1-1,1.5c-0.2,0.6-0.3,1.1-0.4,1.5l10.4,0.8C160.9,282.5,160.5,281.3,159.8,280.4z"/>
	<path class="st5" d="M173.5,274.9l0.5,4.3l0.1,0c0.2-0.7,0.5-1.5,1-2.1c0.4-0.7,1-1.3,1.6-1.8c0.6-0.5,1.3-0.9,2-1.2
		c0.7-0.3,1.5-0.5,2.3-0.6c0.4,0,0.9,0,1.4,0.1l0.7,5.9c-0.3,0-0.7,0-1.1,0c-0.4,0-0.8,0-1.2,0.1c-1.2,0.1-2.1,0.4-2.9,0.9
		c-0.8,0.5-1.3,1.1-1.8,1.8c-0.4,0.7-0.7,1.5-0.8,2.5c-0.1,0.9-0.1,1.9,0,2.9l1.2,10.4l-6.3,0.7l-2.7-23.1L173.5,274.9z"/>
	<path class="st5" d="M185.6,277.4c0.7-0.9,1.6-1.7,2.7-2.2c1.1-0.5,2.2-0.9,3.5-1c1.3-0.2,2.6-0.2,3.9-0.1c1.2,0.1,2.3,0.3,3.5,0.5
		c1.2,0.3,2.3,0.7,3.2,1.2c1,0.6,1.7,1.3,2.3,2.2s0.8,2,0.7,3.5l-0.9,12.1c-0.1,1-0.1,2.1,0,3c0,1,0.2,1.7,0.5,2.2l-6.5-0.5
		c-0.1-0.4-0.2-0.7-0.2-1.1c0-0.4-0.1-0.8-0.1-1.2c-1.1,1-2.3,1.6-3.7,1.9c-1.4,0.3-2.8,0.4-4.3,0.3c-1.1-0.1-2.1-0.3-3.1-0.6
		c-0.9-0.3-1.7-0.8-2.4-1.4c-0.7-0.6-1.2-1.4-1.5-2.3c-0.3-0.9-0.5-1.9-0.4-3.1c0.1-1.3,0.4-2.4,0.9-3.2c0.5-0.8,1.2-1.5,1.9-1.9
		c0.8-0.5,1.6-0.8,2.6-1c1-0.2,1.9-0.3,2.9-0.4c1-0.1,1.9-0.1,2.9-0.2c0.9,0,1.8-0.1,2.5-0.2c0.7-0.1,1.3-0.3,1.8-0.7
		c0.4-0.3,0.7-0.8,0.7-1.5c0-0.7,0-1.2-0.2-1.7c-0.2-0.4-0.5-0.8-0.8-1c-0.4-0.3-0.8-0.4-1.3-0.5c-0.5-0.1-1-0.2-1.6-0.2
		c-1.3-0.1-2.3,0.1-3,0.6c-0.8,0.5-1.2,1.4-1.4,2.6l-6.4-0.5C184.4,279.5,184.8,278.3,185.6,277.4z M197.5,287.3
		c-0.4,0.1-0.9,0.2-1.3,0.2c-0.5,0.1-1,0.1-1.5,0.1c-0.5,0-1,0.1-1.5,0.1c-0.5,0.1-1,0.1-1.4,0.3c-0.5,0.1-0.9,0.3-1.3,0.5
		c-0.4,0.2-0.7,0.5-0.9,0.9c-0.2,0.4-0.4,0.9-0.4,1.5c0,0.6,0,1.1,0.2,1.5c0.2,0.4,0.4,0.7,0.8,1c0.3,0.3,0.7,0.4,1.2,0.6
		c0.5,0.1,1,0.2,1.5,0.2c1.3,0.1,2.2,0,3-0.4c0.7-0.4,1.3-0.8,1.6-1.4c0.4-0.6,0.6-1.1,0.7-1.7c0.1-0.6,0.2-1.1,0.2-1.4l0.2-2.4
		C198.3,287,197.9,287.2,197.5,287.3z"/>
	<g class="st1">
		<g>
			<path class="st7" d="M89.6,274.3c-0.7-1.4,4.5-2.2,3.7,0.2c0.4,0.1,0.8,0.2,1.2,0.3c0.3-1.1,2.4-1,3.1-0.6c1,0.6,1.3,1.7,1,2.8
				c-0.2,0.8,1,1.1,1.2,0.3c1.3-4.1-5.3-6.7-6.5-2.8c-0.2,0.8,0.9,1.1,1.2,0.3c1.5-4.2-8-3.9-5.9,0.1C88.9,275.6,90,275,89.6,274.3
				L89.6,274.3z"/>
		</g>
	</g>
	<g class="st1">
		<g>
			<path class="st7" d="M86.2,270.4c1.1-0.3,2.2-0.4,3.3-0.2c-0.2-0.8-0.4-1.6-0.6-2.3c-0.1,0-0.1,0.1-0.2,0.1
				c-0.6,0.3-0.8,1.2-0.4,1.7c0.4,0.6,1.1,0.7,1.7,0.4c0.1,0,0.1-0.1,0.2-0.1c0.5-0.2,0.7-0.9,0.6-1.4c-0.2-0.6-0.7-0.8-1.2-0.9
				c-1.3-0.2-2.7,0-3.9,0.3C84,268.4,84.7,270.9,86.2,270.4L86.2,270.4z"/>
		</g>
	</g>
	<g class="st1">
		<g>
			<path class="st7" d="M100.1,272.2c1,0.1,2.4,0.7,2.9,1.7c-0.1-0.2-0.1-0.4-0.2-0.6c0,0,0,0.1,0,0.1c0.2-0.4,0.4-0.7,0.6-1.1
				c0,0,0,0-0.1,0c0.3,0,0.6-0.1,1-0.1c0,0,0,0-0.1,0c0.3,0.4,0.6,0.8,0.9,1.2c0,0,0,0,0-0.1c0-1.6-2.5-1.6-2.5,0c0,0,0,0,0,0.1
				c0,0.6,0.4,1,0.9,1.2c0.4,0.2,0.8,0,1.1-0.1c0.4-0.2,0.6-0.7,0.6-1.1c0-1.1-1.2-2-2-2.5c-1-0.6-2.1-1-3.2-1.1
				c-0.7-0.1-1.2,0.6-1.2,1.2C98.8,271.7,99.4,272.1,100.1,272.2L100.1,272.2z"/>
		</g>
	</g>
	<g class="st1">
		<g>
			<path class="st7" d="M85.2,261.6c1.8-0.1,3.9,0.2,5.6,1c1.9,0.9,1.9,2.1,3.3,2.9c1.3,0.7,1.2,1,2.7,1c1.3,0,2.6-1,3.8-1.4
				c5.2-1.6,8,0.7,10.7,4.6c0.5,0.7,1.5,0,1.1-0.6c-2.5-3.7-5.4-6.6-10.1-5.7c-1.1,0.2-2.4,1.1-3.4,1.1c-2.4,0.1-4.2-1.1-6-2.1
				c-2.7-1.4-4.3-2.2-7.5-2C84.4,260.4,84.4,261.7,85.2,261.6L85.2,261.6z"/>
		</g>
	</g>
	<g class="st1">
		<g>
			<path class="st8" d="M79.7,296.5c1.2,0.6,2.4,1.1,3.6,1.7c0,0.6,0.6,0.8,1.1,0.4c0.7,0.1,1.4,0.2,2,0.4c-0.1,0.6,0.6,1.1,1,0.6
				c0.9,0.2,1.8,0.5,2.7,0.7c0.1,0.4,0.6,0.6,0.9,0.4c1-0.1,2.1-0.1,3.1-0.2c0.1,0.4,0.7,0.7,1,0.3c1.2,0.1,2.5,0.3,3.7,0.4
				c0.2,0.4,0.7,0.4,1,0.1c1,0,2.1,0,3.1,0c0.2,0.8,1.5,0.4,1.2-0.3c-0.9-2.8-2.2-1.4-4.2-1.5c-0.9,0-1.4-0.9-2.6-1.1
				c-1.1-0.1-1.6,0.7-2.5,0.7c0.2,0-0.2-0.6-1-0.6c-1.1-0.1-2.1,0.5-3,0.2c-1.9-0.5-2.4-2.5-4.4,0c0.3,0.2,0.7,0.4,1,0.6
				c0.8-3.1-2.3-3-4.1-1.6c0.4,0.1,0.7,0.3,1.1,0.4c-0.2-3.1-2.8-4.5-5.5-2.8C78.4,295.9,79,296.9,79.7,296.5L79.7,296.5z"/>
		</g>
	</g>
	<path class="st9" d="M-19,282.2c-0.6-1.5-1.4-2.8-2.4-3.9c-1-1.1-2.3-1.9-3.8-2.5c-1.5-0.6-3.1-0.9-5-0.9c-1.8,0-3.5,0.3-4.9,0.9
		c-0.9,0.4-1.8,0.8-2.5,1.4c0.1,7.4,1.4,15,4.1,21.8c1,0.2,2.2,0.4,3.4,0.4c1.8,0,3.5-0.3,5-0.9c1.5-0.6,2.8-1.4,3.8-2.5
		c1.1-1.1,1.9-2.3,2.4-3.8c0.6-1.5,0.8-3.2,0.8-5S-18.4,283.8-19,282.2z M-24.8,290c-0.2,0.9-0.5,1.7-0.9,2.4
		c-0.4,0.7-1,1.3-1.8,1.7c-0.7,0.4-1.6,0.6-2.7,0.6c-1.1,0-2-0.2-2.7-0.6c-0.7-0.4-1.3-1-1.7-1.7c-0.4-0.7-0.8-1.5-0.9-2.4
		c-0.2-0.9-0.3-1.8-0.3-2.7s0.1-1.8,0.3-2.7c0.2-0.9,0.5-1.7,0.9-2.4c0.4-0.7,1-1.3,1.7-1.7c0.7-0.4,1.6-0.6,2.7-0.6
		c1.1,0,2,0.2,2.7,0.6c0.7,0.4,1.3,1,1.8,1.7c0.4,0.7,0.7,1.5,0.9,2.4c0.2,0.9,0.3,1.8,0.3,2.7S-24.6,289.1-24.8,290z"/>
	<path class="st9" d="M5.1,281.2c0.2,1.2,0.3,2.5,0.2,4l-0.7,14.3l-6.4-0.3l0.6-13.1c0.1-1.9-0.1-3.4-0.7-4.3
		c-0.6-1-1.6-1.5-3.1-1.6c-1.7-0.1-3,0.4-3.8,1.4c-0.8,1-1.3,2.7-1.4,5l-0.6,12.2l-6.4-0.3l1.1-23.2l6.1,0.3l-0.2,3.2h0.1
		c0.9-1.3,2-2.2,3.3-2.8c1.3-0.6,2.7-0.8,4-0.7c1.7,0.1,3.1,0.4,4.2,0.9c1.1,0.5,1.9,1.2,2.5,2C4.5,279,4.9,280,5.1,281.2z"/>
	<polygon class="st9" points="20.3,283.1 30.9,297.2 23.2,297.7 16.2,287.7 13.9,290.2 14.4,298.2 8,298.5 6.1,266.5 12.5,266.1 
		13.5,283.3 21.1,274.5 28.6,274.1 	"/>
	<path class="st9" d="M51.3,283.7c-0.4-1.6-1.1-3.1-2-4.4s-2.2-2.3-3.6-3.1c-1.5-0.8-3.2-1.1-5.2-1.1c-1.8,0-3.4,0.3-4.8,0.9
		c-1.5,0.6-2.7,1.5-3.8,2.6c-1,1.1-1.9,2.4-2.4,3.9c-0.6,1.5-0.9,3.1-0.9,4.8c0,1.8,0.3,3.5,0.8,5c0.6,1.5,1.3,2.8,2.4,3.9
		c1,1.1,2.3,1.9,3.7,2.5c1.5,0.6,3.1,0.9,5,0.9c2.6,0,4.9-0.6,6.7-1.8c1.9-1.2,3.2-3.2,4.1-6h-5.6c-0.2,0.7-0.8,1.4-1.7,2
		c-0.9,0.7-2,1-3.3,1c-1.8,0-3.2-0.5-4.1-1.4s-1.5-2.4-1.6-4.5h16.8C51.8,287,51.7,285.3,51.3,283.7z M34.9,284.8
		c0-0.5,0.1-1,0.3-1.5c0.2-0.6,0.4-1.1,0.8-1.6c0.4-0.5,0.9-0.9,1.6-1.3c0.7-0.3,1.5-0.5,2.5-0.5c1.6,0,2.7,0.4,3.5,1.3
		c0.8,0.8,1.3,2.1,1.6,3.7H34.9z"/>
	<path class="st9" d="M69.8,272.4c-3.3,11.1-9,22.1-16.7,31.4c-0.4,0-0.8,0-1.1-0.1c-0.6,0-1.3-0.1-2-0.2v-5.3
		c0.6,0.1,1.2,0.1,1.8,0.2s1.3,0.1,1.9,0.1c0.8-0.1,1.5-0.4,1.9-1c0.4-0.6,0.6-1.2,0.6-1.9c0-0.5-0.1-1-0.3-1.4l-8.1-21.8h6.8
		l5.3,15.9h0.1l5.1-15.9H69.8z"/>
	<path class="st10" d="M111.6,136.5c-0.4-3.3-1.3-6.2-2.8-8.9c-1.5-2.7-3.5-5-6.1-6.9c-2.6-1.9-5.7-3.3-9.4-4.1
		c-3.6-0.8-7-0.9-10.2-0.2c-3.2,0.6-6,1.9-8.5,3.7c-2.5,1.8-4.6,4.1-6.3,6.8c0,0,0,0.1-0.1,0.1c-0.8,1.2-1.4,2.5-2,3.9
		c-0.8,1.8-1.4,3.6-1.8,5.6c-0.8,3.4-1,6.8-0.5,10c0.4,3.2,1.3,6.2,2.8,8.8c1.5,2.7,3.6,4.9,6.2,6.8c2.6,1.9,5.7,3.2,9.4,4.1
		c3.7,0.8,7.1,0.9,10.2,0.3c3.2-0.6,6-1.8,8.4-3.6c2.5-1.8,4.6-4,6.3-6.8c1.7-2.8,3-5.9,3.7-9.3C111.8,143.2,112,139.8,111.6,136.5z
		 M104,156.8c-1,1.3-2.4,2.3-4.2,3.2c-1.8,0.8-3.9,1.3-6.5,1.5c-2.6,0.2-5.6-0.1-9.1-0.9s-6.3-1.8-8.6-3c-2.3-1.2-4-2.6-5.3-4.1
		c-1.2-1.5-2.1-3-2.4-4.6c-0.4-1.6-0.4-3.2,0-4.7c0.4-1.6,1-3.1,2.1-4.4c1-1.3,2.4-2.4,4.2-3.3c1.8-0.8,3.9-1.3,6.5-1.5
		c2.6-0.2,5.6,0.1,9.1,0.9c3.5,0.8,6.3,1.8,8.6,3c2.3,1.2,4,2.6,5.3,4.1c1.2,1.5,2,3.1,2.4,4.7c0.4,1.7,0.3,3.3,0,4.9
		C105.7,154.1,105,155.5,104,156.8z"/>
	<g class="st1">
		<g>
			<path class="st7" d="M83,133.3c-0.7-1.4,4.5-2.2,3.7,0.2c0.4,0.1,0.8,0.2,1.2,0.3c0.3-1.1,2.4-1,3.1-0.6c1,0.6,1.3,1.7,1,2.8
				c-0.2,0.8,1,1.1,1.2,0.3c1.3-4.1-5.3-6.7-6.5-2.8c-0.2,0.8,0.9,1.1,1.2,0.3c1.5-4.2-8-3.9-5.9,0.1C82.3,134.6,83.4,134,83,133.3
				L83,133.3z"/>
		</g>
	</g>
	<g class="st1">
		<g>
			<path class="st7" d="M79.7,129.4c1.1-0.3,2.2-0.4,3.3-0.2c-0.2-0.8-0.4-1.6-0.6-2.3c-0.1,0-0.1,0.1-0.2,0.1
				c-0.6,0.3-0.8,1.2-0.4,1.7c0.4,0.6,1.1,0.7,1.7,0.4c0.1,0,0.1-0.1,0.2-0.1c0.5-0.2,0.7-0.9,0.6-1.4c-0.2-0.6-0.7-0.8-1.2-0.9
				c-1.3-0.2-2.7,0-3.9,0.3C77.4,127.5,78.1,129.9,79.7,129.4L79.7,129.4z"/>
		</g>
	</g>
	<g class="st1">
		<g>
			<path class="st7" d="M93.5,131.2c1,0.1,2.4,0.7,2.9,1.7c-0.1-0.2-0.1-0.4-0.2-0.6c0,0,0,0.1,0,0.1c0.2-0.4,0.4-0.7,0.6-1.1
				c0,0,0,0-0.1,0c0.3,0,0.6-0.1,1-0.1c0,0,0,0-0.1,0c0.3,0.4,0.6,0.8,0.9,1.2c0,0,0,0,0-0.1c0-1.6-2.5-1.6-2.5,0c0,0,0,0,0,0.1
				c0,0.6,0.4,1,0.9,1.2c0.4,0.2,0.8,0,1.1-0.1c0.4-0.2,0.6-0.7,0.6-1.1c0-1.1-1.2-2-2-2.5c-1-0.6-2.1-1-3.2-1.1
				c-0.7-0.1-1.2,0.6-1.2,1.2C92.2,130.7,92.8,131.1,93.5,131.2L93.5,131.2z"/>
		</g>
	</g>
	<g class="st1">
		<g>
			<path class="st7" d="M78.7,120.6c1.8-0.1,3.9,0.2,5.6,1c1.9,0.9,1.9,2.1,3.3,2.9c1.3,0.7,1.2,1,2.7,1c1.3,0,2.6-1,3.8-1.4
				c5.2-1.6,8,0.7,10.7,4.6c0.5,0.7,1.5,0,1.1-0.6c-2.5-3.7-5.4-6.6-10.1-5.7c-1.1,0.2-2.4,1.1-3.4,1.1c-2.4,0.1-4.2-1.1-6-2.1
				c-2.7-1.4-4.3-2.2-7.5-2C77.9,119.4,77.9,120.7,78.7,120.6L78.7,120.6z"/>
		</g>
	</g>
	<g class="st1">
		<g>
			<path class="st7" d="M73.1,155.5c1.2,0.6,2.4,1.1,3.6,1.7c0,0.6,0.6,0.8,1.1,0.4c0.7,0.1,1.4,0.2,2,0.4c-0.1,0.6,0.6,1.1,1,0.6
				c0.9,0.2,1.8,0.5,2.7,0.7c0.1,0.4,0.6,0.6,0.9,0.4c1-0.1,2.1-0.1,3.1-0.2c0.1,0.4,0.7,0.7,1,0.3c1.2,0.1,2.5,0.3,3.7,0.4
				c0.2,0.4,0.7,0.4,1,0.1c1,0,2.1,0,3.1,0c0.2,0.8,1.5,0.4,1.2-0.3c-0.9-2.8-2.2-1.4-4.2-1.5c-0.9,0-1.4-0.9-2.6-1.1
				c-1.1-0.1-1.6,0.7-2.5,0.7c0.2,0-0.2-0.6-1-0.6c-1.1-0.1-2.1,0.5-3,0.2c-1.9-0.5-2.4-2.5-4.4,0c0.3,0.2,0.7,0.4,1,0.6
				c0.8-3.1-2.3-3-4.1-1.6c0.4,0.1,0.7,0.3,1.1,0.4c-0.2-3.1-2.8-4.5-5.5-2.8C71.8,154.9,72.4,156,73.1,155.5L73.1,155.5z"/>
		</g>
	</g>
	<g class="st1">
		<path class="st8" d="M-13,5.1c-0.4-0.9-0.9-1.7-1.5-2.3c-0.1-0.1-0.2-0.2-0.3-0.3c-0.8-0.7-1.6-1.1-2.7-1.4
			c-1-0.3-2.2-0.5-3.4-0.5c-1.6,0-3,0.4-4.2,1.2c-0.7,0.5-1.4,1-1.9,1.6c-0.3,0.3-0.6,0.7-0.9,1.1c-0.2-0.3-0.3-0.7-0.5-1
			c-0.6-0.9-1.3-1.6-2.2-2c-1.2-0.6-2.6-0.9-4-0.9c-1.5,0-2.9,0.3-4.1,1c-1.2,0.7-2.2,1.6-3,2.8h-0.1V1.2h-6v23.2h6.4V11
			c0-1.1,0.2-2.1,0.5-2.8c0.3-0.7,0.7-1.2,1.2-1.6c0.5-0.4,0.9-0.6,1.4-0.8c0.5-0.1,0.9-0.2,1.2-0.2c1,0,1.8,0.2,2.3,0.5
			c0.5,0.3,0.9,0.8,1.1,1.4c0.2,0.6,0.4,1.2,0.4,1.9c0,0.7,0,1.4,0,2v13h6.4v-13c0-0.7,0.1-1.4,0.2-2.1c0.1-0.7,0.3-1.3,0.6-1.9
			c0.3-0.6,0.8-1,1.3-1.3c0.5-0.3,1.3-0.5,2.2-0.5s1.6,0.2,2.1,0.5c0.5,0.3,0.9,0.7,1.2,1.2c0.3,0.5,0.4,1.1,0.5,1.8
			s0.1,1.4,0.1,2.2v13.2h6.4V8.9C-12.4,7.4-12.6,6.1-13,5.1z"/>
		<path class="st8" d="M12.5,7.8c-0.5-1.4-1.2-2.6-2.2-3.6C10.2,4.1,10.1,4,10,3.9C9,2.9,7.7,2,6.2,1.5c-1.5-0.6-3.1-0.9-5-0.9
			s-3.5,0.3-5,0.9c-0.9,0.4-1.8,0.8-2.5,1.4c-0.4,0.3-0.8,0.7-1.2,1.1C-8.5,5-9.3,6.3-9.9,7.8c-0.2,0.6-0.4,1.2-0.5,1.9
			c-0.2,1-0.3,2.1-0.3,3.2c0,1.9,0.3,3.5,0.9,5c0.6,1.5,1.4,2.8,2.4,3.8c0.5,0.5,1,0.9,1.5,1.3c0.4,0.3,0.9,0.5,1.3,0.8
			c0.3,0.1,0.6,0.3,0.9,0.4c1.5,0.6,3.1,0.9,5,0.9s3.5-0.3,5-0.9c1.5-0.6,2.7-1.4,3.8-2.5c1-1.1,1.8-2.3,2.4-3.8
			c0.3-0.7,0.5-1.5,0.6-2.3c0.2-0.8,0.2-1.8,0.2-2.7C13.3,11,13,9.3,12.5,7.8z M5.7,18c-0.4,0.7-1,1.3-1.8,1.7
			c-0.7,0.4-1.6,0.6-2.7,0.6c-0.4,0-0.8,0-1.1-0.1c-0.6-0.1-1.1-0.3-1.6-0.5c-0.7-0.4-1.3-1-1.7-1.7c-0.4-0.7-0.7-1.5-0.9-2.4
			c-0.2-0.9-0.3-1.8-0.3-2.7c0-0.9,0.1-1.8,0.3-2.7c0.2-0.9,0.5-1.7,0.9-2.4C-2.7,7-2.2,6.5-1.4,6c0.7-0.4,1.6-0.7,2.7-0.7
			S3.2,5.6,4,6c0.7,0.4,1.3,1,1.8,1.7c0.4,0.7,0.7,1.5,0.9,2.4c0.2,0.9,0.3,1.8,0.3,2.7c0,0.9-0.1,1.8-0.3,2.7
			c-0.1,0.7-0.4,1.3-0.6,1.9C5.9,17.6,5.8,17.8,5.7,18z"/>
		<path class="st8" d="M36.7,9c-0.1-1-0.2-1.9-0.4-2.8c-0.2-0.9-0.5-1.6-0.8-2.3c-0.1-0.3-0.3-0.5-0.5-0.7c-0.6-0.8-1.5-1.5-2.6-1.9
			c-1.1-0.5-2.5-0.7-4.2-0.7c-1.3,0-2.7,0.3-4,0.9c-0.6,0.3-1.2,0.7-1.8,1.2c-0.5,0.5-1,1.1-1.4,1.8H21V1.2h-6.1v23.2h6.4V12.3
			c0-2.4,0.4-4.1,1.2-5.1c0.3-0.4,0.7-0.7,1.1-1c0.7-0.4,1.6-0.6,2.7-0.6c1.5,0,2.6,0.5,3.2,1.4c0.1,0.1,0.1,0.2,0.2,0.4
			c0.5,0.9,0.7,2.2,0.7,3.9v13.1h6.4V10.2C36.7,9.8,36.7,9.4,36.7,9z"/>
		<path class="st8" d="M56.2,15l-3.5-5.3l8.8-8.5H54l-8,8.4V-7.6h-6.4v32.1h6.4v-8l2.5-2.4l6.4,10.4h7.7L56.2,15z"/>
		<path class="st8" d="M83.2,14.4c0.1-1.8,0-3.5-0.4-5.2c-0.4-1.7-1.1-3.1-2.1-4.4c-0.9-1.3-2.1-2.3-3.6-3.1
			c-1.3-0.7-2.8-1.1-4.5-1.1c-0.2,0-0.4,0-0.6,0c-1.8,0-3.4,0.3-4.8,1c-1.5,0.6-2.7,1.5-3.8,2.6c-1,1.1-1.8,2.4-2.4,3.9
			S60,11.1,60,12.9c0,1.4,0.2,2.6,0.5,3.8c0.1,0.4,0.2,0.8,0.4,1.1c0.6,1.5,1.3,2.8,2.4,3.9c1,1.1,2.3,1.9,3.7,2.5
			c0.1,0,0.2,0.1,0.3,0.1c1.4,0.5,2.9,0.8,4.7,0.8c1.7,0,3.1-0.2,4.5-0.7c0.8-0.3,1.6-0.7,2.3-1.1c1.8-1.2,3.2-3.2,4.1-6h-5.6
			c-0.2,0.7-0.8,1.4-1.7,2c-0.9,0.7-2,1-3.3,1c-1,0-1.8-0.1-2.6-0.4c-0.6-0.2-1.1-0.6-1.6-1c-1-0.9-1.5-2.4-1.6-4.5H83.2z
			 M66.4,10.3c0-0.5,0.1-1,0.3-1.5c0.2-0.6,0.5-1.1,0.8-1.6c0.4-0.5,1-0.9,1.6-1.3c0.7-0.3,1.5-0.5,2.5-0.5c0.4,0,0.7,0,1,0.1
			c1,0.1,1.9,0.5,2.4,1.2c0.8,0.8,1.3,2.1,1.6,3.7H66.4z"/>
		<path class="st8" d="M98.5,1.2l-5.1,15.9h-0.1L88,1.2h-6.8L89.4,23c0.2,0.5,0.3,0.9,0.3,1.4c0,0.7-0.2,1.3-0.6,1.9
			c-0.4,0.6-1,0.9-1.9,1c-0.6,0-1.3,0-1.9,0s-1.2-0.1-1.8-0.2v5.3c0.7,0.1,1.3,0.1,2,0.2c0.6,0,1.3,0.1,2,0.1c0.2,0,0.3,0,0.5,0
			c2,0,3.5-0.5,4.7-1.2c1.2-0.8,2.2-2.2,2.9-4l9.7-26.1H98.5z"/>
		<path class="st8" d="M167.1,8.3c-0.4-1.5-1.1-2.8-1.9-4c-0.9-1.1-2-2-3.3-2.7s-2.9-1-4.7-1c-1.4,0-2.8,0.3-4,0.9
			c-0.6,0.3-1.2,0.7-1.7,1.2c-0.5,0.4-0.9,1-1.3,1.6h-0.1v-3h-6.1v31.4h6.4v-11h0.1c0.2,0.3,0.5,0.7,0.8,0.9
			c0.6,0.7,1.4,1.2,2.2,1.6c0.6,0.3,1.1,0.5,1.8,0.6c0.7,0.2,1.5,0.3,2.2,0.3c1.7,0,3.2-0.3,4.5-1c1.3-0.7,2.3-1.5,3.2-2.6
			c0.1-0.2,0.2-0.3,0.4-0.5c0.7-1,1.2-2.1,1.5-3.3c0.4-1.4,0.6-2.9,0.6-4.5C167.8,11.4,167.5,9.8,167.1,8.3z M150.6,15.6
			c-0.2-0.9-0.3-1.8-0.3-2.8c0-1,0.1-1.9,0.3-2.8c0.1-0.5,0.2-0.9,0.4-1.3c0.1-0.4,0.3-0.7,0.5-1c0.4-0.7,1-1.2,1.7-1.7
			c0.7-0.4,1.6-0.7,2.6-0.7c1,0,1.9,0.2,2.6,0.7c0.7,0.4,1.3,1,1.7,1.7c0.4,0.7,0.8,1.5,1,2.4c0.2,0.9,0.3,1.8,0.3,2.7
			s-0.1,1.8-0.3,2.8c-0.2,0.9-0.5,1.7-0.9,2.4c-0.4,0.7-1,1.2-1.7,1.6c-0.7,0.4-1.6,0.6-2.6,0.6c-1,0-1.9-0.2-2.6-0.6
			c-0.2-0.1-0.4-0.3-0.6-0.4c-0.5-0.3-0.8-0.8-1.1-1.2C151.1,17.3,150.7,16.5,150.6,15.6z"/>
		<path class="st8" d="M191.3,14.4c0-0.3,0-0.6,0-0.8c0-1.5-0.1-2.9-0.5-4.3c-0.4-1.7-1.1-3.1-2-4.4c-0.9-1.3-2.1-2.3-3.6-3.1
			c-0.2-0.1-0.5-0.2-0.7-0.3c-1.3-0.6-2.8-0.8-4.5-0.8c-1.8,0-3.4,0.3-4.8,1c-1.4,0.6-2.7,1.5-3.8,2.6c-0.1,0.2-0.3,0.3-0.4,0.5
			c-0.8,1-1.5,2.1-2,3.4c-0.6,1.5-0.8,3.1-0.8,4.9c0,1.8,0.3,3.5,0.8,4.9c0.5,1.5,1.3,2.8,2.4,3.9l0,0c1,1.1,2.2,1.9,3.7,2.5
			c1.4,0.6,3,0.9,4.8,0.9h0.2c0.3,0,0.5,0,0.8,0c2.3-0.1,4.3-0.7,5.9-1.8c1.9-1.2,3.2-3.2,4.1-6h-5.6c-0.2,0.7-0.7,1.4-1.6,2
			c0,0-0.1,0.1-0.1,0.1c-0.9,0.7-2,1-3.3,1c-1.8,0-3.2-0.5-4.1-1.4c-1-0.9-1.5-2.4-1.6-4.5H191.3z M174.5,10.3c0-0.5,0.1-1,0.3-1.5
			c0.2-0.5,0.4-1,0.8-1.5c0,0,0.1-0.1,0.1-0.1c0.4-0.5,0.9-0.9,1.6-1.3c0.7-0.3,1.5-0.5,2.5-0.5c1.6,0,2.7,0.4,3.5,1.3
			c0.8,0.8,1.3,2.1,1.6,3.7H174.5z"/>
		<path class="st8" d="M206.3,0.6c-0.8,0-1.6,0.1-2.3,0.4s-1.5,0.6-2.1,1c-0.7,0.4-1.2,1-1.8,1.6c-0.5,0.6-0.9,1.3-1.2,2h-0.1V1.2
			h-6.1v23.2h6.4V14c0-1.1,0.1-2,0.3-2.9c0.2-0.9,0.6-1.7,1.1-2.4c0.5-0.7,1.1-1.2,1.9-1.6c0.8-0.4,1.8-0.6,3-0.6
			c0.4,0,0.8,0,1.2,0.1c0.4,0,0.8,0.1,1.1,0.1V0.8C207.2,0.7,206.7,0.6,206.3,0.6z"/>
		<path class="st8" d="M229.2,22.3c-0.1-1-0.2-2-0.2-3V7.2c0-1.4-0.3-2.5-1-3.4c-0.6-0.9-1.4-1.5-2.4-2c-1-0.5-2.1-0.8-3.3-1
			c-1.2-0.2-2.4-0.2-3.5-0.2c-1.3,0-2.6,0.1-3.8,0.4c-1.3,0.3-2.4,0.7-3.4,1.3c-1,0.6-1.9,1.4-2.5,2.4c-0.7,1-1,2.2-1.1,3.7h6.4
			c0.1-1.3,0.5-2.2,1.3-2.7c0.7-0.5,1.7-0.8,3-0.8c0.6,0,1.1,0,1.6,0.1c0.5,0.1,0.9,0.2,1.3,0.4c0.4,0.2,0.7,0.5,0.9,0.9
			c0.2,0.4,0.3,1,0.3,1.6c0,0.7-0.2,1.2-0.6,1.5c-0.4,0.3-1,0.6-1.7,0.8c-0.7,0.2-1.5,0.3-2.5,0.4s-1.9,0.2-2.8,0.4
			c-1,0.2-1.9,0.4-2.9,0.6c-1,0.2-1.8,0.6-2.5,1.1c-0.7,0.5-1.3,1.2-1.8,2c-0.3,0.5-0.5,1.1-0.6,1.7c-0.1,0.5-0.1,1-0.1,1.5
			c0,1.2,0.2,2.2,0.6,3.1c0.4,0.9,1,1.6,1.7,2.2c0.7,0.6,1.6,1,2.5,1.3c1,0.3,2,0.4,3.1,0.4c1.4,0,2.8-0.2,4.2-0.6
			c1.4-0.4,2.6-1.2,3.6-2.2c0,0.4,0.1,0.8,0.2,1.1c0.1,0.4,0.2,0.7,0.3,1.1h6.5C229.5,24,229.3,23.3,229.2,22.3z M221.9,18.7
			c-0.3,0.6-0.8,1.1-1.5,1.5c-0.7,0.4-1.7,0.6-2.9,0.6c-0.5,0-1,0-1.5-0.1c-0.5-0.1-0.9-0.2-1.3-0.5c-0.4-0.2-0.7-0.5-0.9-0.9
			c-0.2-0.4-0.3-0.9-0.3-1.4c0-0.3,0-0.5,0.1-0.8c0-0.3,0.1-0.5,0.2-0.7c0.2-0.4,0.5-0.7,0.8-1c0.3-0.3,0.8-0.5,1.2-0.6
			c0.5-0.2,0.9-0.3,1.4-0.4c0.5-0.1,1-0.2,1.5-0.2s1-0.1,1.5-0.2c0.5-0.1,0.9-0.2,1.3-0.3c0.4-0.1,0.7-0.3,1-0.6v2.4
			c0,0.4,0,0.8-0.1,1.4c0,0.1,0,0.2,0,0.3C222.3,17.7,222.1,18.2,221.9,18.7z"/>
		<path class="st11" d="M146.1,5.5c-0.2-1.5-0.5-2.9-0.9-4.3c-0.5-1.6-1.1-3.2-1.9-4.6c-1.5-2.7-3.5-5-6.1-6.9
			c-2.6-1.9-5.7-3.3-9.4-4.1c-3.6-0.8-7-0.9-10.2-0.2c-3.2,0.6-6,1.9-8.5,3.7c-2.5,1.8-4.6,4.1-6.3,6.8c0,0,0,0.1-0.1,0.1
			c-0.8,1.2-1.4,2.5-2,3.9c-0.8,1.8-1.4,3.7-1.8,5.7c-0.8,3.5-1,6.8-0.5,10c0.4,3.2,1.4,6.2,2.9,8.8c1.5,2.7,3.6,4.9,6.2,6.8
			c2.6,1.9,5.7,3.2,9.4,4.1c3.7,0.8,7.1,0.9,10.2,0.3c3.1-0.6,6-1.8,8.4-3.6c2.5-1.8,4.6-4,6.3-6.8c0.9-1.5,1.7-3.1,2.4-4.8
			c0.6-1.4,1-2.9,1.4-4.5C146.3,12.2,146.4,8.8,146.1,5.5z M140.5,21.6c-0.3,1.5-1,3-2,4.2s-2.4,2.3-4.1,3.2
			c-1.8,0.8-3.9,1.3-6.5,1.5c-2.6,0.2-5.6-0.1-9.1-0.9c-3.5-0.8-6.3-1.8-8.6-3c-2.3-1.2-4-2.6-5.3-4.1c-1.2-1.5-2-3-2.4-4.6
			c-0.4-1.6-0.4-3.2,0-4.7c0.4-1.6,1-3,2.1-4.4c1-1.3,2.4-2.4,4.2-3.3c1.8-0.8,3.9-1.3,6.5-1.5c2.6-0.2,5.6,0.1,9.1,0.9
			c3.5,0.8,6.3,1.8,8.6,3c2.3,1.2,4,2.6,5.3,4.1c1.2,1.5,2.1,3.1,2.4,4.7C140.8,18.4,140.8,20,140.5,21.6z"/>
		<g>
			<g>
				<path class="st7" d="M117.5,2.3c-0.7-1.4,4.5-2.2,3.7,0.2c0.4,0.1,0.8,0.2,1.2,0.3c0.3-1.1,2.4-1,3.1-0.6c1,0.6,1.3,1.7,1,2.8
					c-0.2,0.8,1,1.1,1.2,0.3c1.3-4.1-5.3-6.7-6.5-2.8c-0.2,0.8,0.9,1.1,1.2,0.3c1.5-4.2-8-3.9-5.9,0.1C116.8,3.6,117.8,3,117.5,2.3
					L117.5,2.3z"/>
			</g>
		</g>
		<g>
			<g>
				<path class="st7" d="M114.1-1.6c1.1-0.3,2.2-0.4,3.3-0.2c-0.2-0.8-0.4-1.6-0.6-2.3c-0.1,0-0.1,0.1-0.2,0.1
					c-0.6,0.3-0.8,1.2-0.4,1.7c0.4,0.6,1.1,0.7,1.7,0.4c0.1,0,0.1-0.1,0.2-0.1c0.5-0.2,0.7-0.9,0.6-1.4c-0.2-0.6-0.7-0.8-1.2-0.9
					c-1.3-0.2-2.7,0-3.9,0.3C111.9-3.5,112.6-1.1,114.1-1.6L114.1-1.6z"/>
			</g>
		</g>
		<g>
			<g>
				<path class="st7" d="M127.9,0.2c1,0.1,2.4,0.7,2.9,1.7c-0.1-0.2-0.1-0.4-0.2-0.6c0,0,0,0.1,0,0.1c0.2-0.4,0.4-0.7,0.6-1.1
					c0,0,0,0-0.1,0c0.3,0,0.6-0.1,1-0.1c0,0,0,0-0.1,0c0.3,0.4,0.6,0.8,0.9,1.2c0,0,0,0,0-0.1c0-1.6-2.5-1.6-2.5,0c0,0,0,0,0,0.1
					c0,0.6,0.4,1,0.9,1.2c0.4,0.2,0.8,0,1.1-0.1c0.4-0.2,0.6-0.7,0.6-1.1c0-1.1-1.2-2-2-2.5c-1-0.6-2.1-1-3.2-1.1
					c-0.7-0.1-1.2,0.6-1.2,1.3C126.7-0.3,127.3,0.1,127.9,0.2L127.9,0.2z"/>
			</g>
		</g>
		<g>
			<g>
				<path class="st7" d="M113.1-10.4c1.8-0.1,3.9,0.2,5.6,1c1.9,0.9,1.9,2.1,3.3,2.9c1.3,0.7,1.2,1,2.7,1c1.3,0,2.6-1,3.8-1.4
					c5.2-1.6,8,0.7,10.7,4.6c0.5,0.7,1.5,0,1.1-0.6c-2.5-3.7-5.4-6.6-10.1-5.7c-1.1,0.2-2.4,1.1-3.4,1.1c-2.4,0.1-4.2-1.1-6-2.1
					c-2.7-1.4-4.3-2.2-7.5-2C112.3-11.6,112.3-10.3,113.1-10.4L113.1-10.4z"/>
			</g>
		</g>
		<g>
			<g>
				<path class="st7" d="M107.6,24.5c1.2,0.6,2.4,1.1,3.6,1.7c0,0.6,0.6,0.8,1.1,0.4c0.7,0.1,1.4,0.2,2,0.4c-0.1,0.6,0.6,1.1,1,0.6
					c0.9,0.2,1.8,0.5,2.7,0.7c0.1,0.4,0.6,0.6,0.9,0.4c1-0.1,2.1-0.1,3.1-0.2c0.1,0.4,0.7,0.7,1,0.3c1.2,0.1,2.5,0.3,3.7,0.4
					c0.2,0.4,0.7,0.4,1,0.1c1,0,2.1,0,3.1,0c0.2,0.8,1.5,0.4,1.2-0.3c-0.9-2.8-2.2-1.4-4.2-1.5c-0.9,0-1.4-0.9-2.6-1.1
					c-1.1-0.1-1.6,0.7-2.5,0.7c0.2,0-0.2-0.6-1-0.6c-1.1-0.1-2.1,0.5-3,0.2c-1.9-0.5-2.4-2.5-4.4,0c0.3,0.2,0.7,0.4,1,0.6
					c0.8-3.1-2.3-3-4.1-1.6c0.4,0.1,0.7,0.3,1.1,0.4c-0.2-3.1-2.8-4.5-5.5-2.8C106.3,23.9,106.9,25,107.6,24.5L107.6,24.5z"/>
			</g>
		</g>
		<path class="st12" d="M-13,5.1c0.4,1.1,0.6,2.3,0.6,3.8v15.6h-6.4V11.3c0-0.8,0-1.5-0.1-2.2s-0.2-1.3-0.5-1.8
			c-0.3-0.5-0.7-0.9-1.2-1.2c-0.5-0.3-1.2-0.5-2.1-0.5s-1.6,0.2-2.2,0.5c-0.6,0.3-1,0.8-1.3,1.3c-0.3,0.6-0.5,1.2-0.6,1.9
			c-0.1,0.7-0.2,1.4-0.2,2.1v13h-6.4v-13c0-0.7,0-1.4,0-2c0-0.7-0.2-1.3-0.4-1.9c-0.2-0.6-0.6-1-1.1-1.4c-0.5-0.3-1.3-0.5-2.3-0.5
			c-0.3,0-0.7,0.1-1.2,0.2c-0.5,0.1-1,0.4-1.4,0.8C-40.3,7-40.7,7.5-41,8.2c-0.3,0.7-0.5,1.6-0.5,2.8v13.5h-6.4v-17
			c5.5-1.8,12.1-3.2,19.5-3.9c0.5-0.1,0.9-0.1,1.4-0.1c4-0.4,8.1-0.6,12.5-0.6C-13.9,3.3-13.4,4.1-13,5.1z"/>
		<path class="st12" d="M12.5,7.8c-0.5-1.4-1.2-2.6-2.2-3.6C4.6,3.5-0.9,3.1-6.2,2.9c-0.4,0.3-0.8,0.7-1.2,1.1
			C-8.5,5-9.3,6.3-9.9,7.8c-0.2,0.6-0.4,1.2-0.5,1.9c-0.2,1-0.3,2.1-0.3,3.2c0,1.9,0.3,3.5,0.9,5c0.6,1.5,1.4,2.8,2.4,3.8
			c0.5,0.5,1,0.9,1.5,1.3c0.4,0.3,0.9,0.5,1.3,0.8c0.3,0.1,0.6,0.3,0.9,0.4c1.5,0.6,3.1,0.9,5,0.9s3.5-0.3,5-0.9
			c1.5-0.6,2.7-1.4,3.8-2.5c1-1.1,1.8-2.3,2.4-3.8c0.3-0.7,0.5-1.5,0.6-2.3c0.2-0.8,0.2-1.8,0.2-2.7C13.3,11,13,9.3,12.5,7.8z
			 M5.7,18c-0.4,0.7-1,1.3-1.8,1.7c-0.7,0.4-1.6,0.6-2.7,0.6c-0.4,0-0.8,0-1.1-0.1c-0.6-0.1-1.1-0.3-1.6-0.5c-0.7-0.4-1.3-1-1.7-1.7
			c-0.4-0.7-0.7-1.5-0.9-2.4c-0.2-0.9-0.3-1.8-0.3-2.7c0-0.9,0.1-1.8,0.3-2.7c0.2-0.9,0.5-1.7,0.9-2.4C-2.7,7-2.2,6.5-1.4,6
			c0.7-0.4,1.6-0.7,2.7-0.7S3.2,5.6,4,6c0.7,0.4,1.3,1,1.8,1.7c0.4,0.7,0.7,1.5,0.9,2.4c0.2,0.9,0.3,1.8,0.3,2.7
			c0,0.9-0.1,1.8-0.3,2.7c-0.1,0.7-0.4,1.3-0.6,1.9C5.9,17.6,5.8,17.8,5.7,18z"/>
		<path class="st12" d="M23.6,6.2c-0.4,0.2-0.8,0.6-1.1,1c-0.8,1-1.2,2.7-1.2,5.1v12.2h-6.4V4.8c1.8,0.3,3.7,0.6,5.6,0.9
			C21.5,5.8,22.6,6,23.6,6.2z"/>
		<path class="st12" d="M36.7,10.2v14.3h-6.4V11.3c0-1.7-0.2-3-0.7-3.9c2.4,0.5,4.7,1.1,7,1.6C36.7,9.4,36.7,9.8,36.7,10.2z"/>
		<path class="st12" d="M62.5,24.5h-7.7l-6.4-10.4l-2.5,2.4v8h-6.4V9.8c5.9,1.6,11.5,3.3,16.7,5.2L62.5,24.5z"/>
		<path class="st12" d="M76.4,24.3C75,24.8,73.5,25,71.9,25c-1.7,0-3.3-0.2-4.7-0.8c-0.1,0-0.2-0.1-0.3-0.1
			c-1.5-0.6-2.7-1.4-3.7-2.5c-1-1.1-1.8-2.4-2.4-3.9c-0.1-0.4-0.2-0.7-0.4-1.1c3.1,1.2,6,2.5,8.7,3.9C71.8,21.8,74.2,23,76.4,24.3z"
			/>
		<path class="st12" d="M87.8,32.6c-0.2,0-0.3,0-0.5,0c-0.7,0-1.3,0-2-0.1c-0.6,0-1.3-0.1-2-0.2V29C85.1,30.2,86.5,31.4,87.8,32.6z"
			/>
		<path class="st12" d="M191.3,13.6c-2.1-0.6-4.1-1.2-6.1-2c-1.1-0.4-2.2-0.8-3.3-1.3h3c-0.3-1.6-0.8-2.9-1.6-3.7
			c-0.8-0.8-1.9-1.3-3.5-1.3c-1,0-1.9,0.2-2.5,0.5c-0.7,0.3-1.2,0.8-1.6,1.3c0,0-0.1,0.1-0.1,0.1c-1.6-0.9-3.1-1.8-4.6-2.8
			c0.1-0.1,0.3-0.3,0.4-0.5c1.1-1.1,2.3-1.9,3.8-2.6c1.5-0.6,3.1-1,4.8-1c1.7,0,3.2,0.3,4.5,0.8c0.2,0.1,0.5,0.2,0.7,0.3
			c1.5,0.8,2.7,1.8,3.6,3.1c0.9,1.3,1.6,2.8,2,4.4C191.2,10.6,191.4,12.1,191.3,13.6z"/>
		<path class="st12" d="M207.7,6.7c-0.3-0.1-0.7-0.1-1.1-0.1c-0.4,0-0.8-0.1-1.2-0.1c-1.2,0-2.2,0.2-3,0.6c-0.8,0.4-1.5,0.9-1.9,1.6
			c-0.5,0.7-0.9,1.5-1.1,2.4c-0.2,0.9-0.3,1.9-0.3,2.9v1.4c-2.2-0.4-4.3-0.9-6.4-1.5V1.2h6.1v4.3h0.1c0.3-0.7,0.7-1.4,1.2-2
			c0.5-0.6,1.1-1.1,1.8-1.6c0.7-0.4,1.4-0.8,2.1-1s1.5-0.4,2.3-0.4c0.4,0,0.9,0.1,1.4,0.2V6.7z"/>
		<path class="st12" d="M229,7.2v9.6c-2.2,0.2-4.3,0.3-6.5,0.4c0-0.1,0-0.2,0-0.3c0.1-0.6,0.1-1.1,0.1-1.4v-2.4
			c-0.3,0.2-0.6,0.4-1,0.6c-0.4,0.1-0.8,0.2-1.3,0.3c-0.5,0.1-1,0.2-1.5,0.2s-1,0.1-1.5,0.2c-0.5,0.1-1,0.2-1.4,0.4
			c-0.5,0.1-0.9,0.3-1.2,0.6c-0.4,0.2-0.6,0.6-0.8,1c-0.1,0.2-0.2,0.4-0.2,0.7c-2.1-0.1-4.2-0.3-6.3-0.5c0.1-0.7,0.3-1.2,0.6-1.7
			c0.5-0.8,1.1-1.5,1.8-2c0.7-0.5,1.6-0.9,2.5-1.1c0.9-0.3,1.9-0.5,2.9-0.6c1-0.1,1.9-0.3,2.8-0.4s1.8-0.2,2.5-0.4
			c0.7-0.2,1.3-0.4,1.7-0.8c0.4-0.3,0.6-0.8,0.6-1.5c0-0.7-0.1-1.2-0.3-1.6c-0.2-0.4-0.5-0.7-0.9-0.9C221,5.2,220.5,5,220,5
			c-0.5-0.1-1-0.1-1.6-0.1c-1.3,0-2.2,0.3-3,0.8c-0.7,0.5-1.1,1.4-1.3,2.7h-6.4c0.1-1.5,0.5-2.7,1.1-3.7c0.7-1,1.5-1.8,2.5-2.4
			c1-0.6,2.2-1,3.4-1.3c1.3-0.3,2.5-0.4,3.8-0.4c1.2,0,2.4,0.1,3.5,0.2c1.2,0.2,2.3,0.5,3.3,1c1,0.5,1.8,1.1,2.4,2
			C228.7,4.6,229,5.8,229,7.2z"/>
		<path class="st13" d="M12.5,7.8c-0.5-1.4-1.2-2.6-2.2-3.6C10.2,4.1,10.1,4,10,3.9C9,2.9,7.7,2,6.2,1.5c-1.5-0.6-3.1-0.9-5-0.9
			s-3.5,0.3-5,0.9c-0.9,0.4-1.8,0.8-2.5,1.4c-0.4,0.3-0.8,0.7-1.2,1.1C-8.5,5-9.3,6.3-9.9,7.8c-0.2,0.6-0.4,1.2-0.5,1.9
			c0.6,4.8,2.2,9.3,4.5,13.3c0.4,0.3,0.9,0.5,1.3,0.8c0.3,0.1,0.6,0.3,0.9,0.4c1.5,0.6,3.1,0.9,5,0.9s3.5-0.3,5-0.9
			c1.5-0.6,2.7-1.4,3.8-2.5c1-1.1,1.8-2.3,2.4-3.8c0.3-0.7,0.5-1.5,0.6-2.3c0.2-0.8,0.2-1.8,0.2-2.7C13.3,11,13,9.3,12.5,7.8z
			 M5.7,18c-0.4,0.7-1,1.3-1.8,1.7c-0.7,0.4-1.6,0.6-2.7,0.6c-0.4,0-0.8,0-1.1-0.1c-0.6-0.1-1.1-0.3-1.6-0.5c-0.7-0.4-1.3-1-1.7-1.7
			c-0.4-0.7-0.7-1.5-0.9-2.4c-0.2-0.9-0.3-1.8-0.3-2.7c0-0.9,0.1-1.8,0.3-2.7c0.2-0.9,0.5-1.7,0.9-2.4C-2.7,7-2.2,6.5-1.4,6
			c0.7-0.4,1.6-0.7,2.7-0.7S3.2,5.6,4,6c0.7,0.4,1.3,1,1.8,1.7c0.4,0.7,0.7,1.5,0.9,2.4c0.2,0.9,0.3,1.8,0.3,2.7
			c0,0.9-0.1,1.8-0.3,2.7c-0.1,0.7-0.4,1.3-0.6,1.9C5.9,17.6,5.8,17.8,5.7,18z"/>
		<path class="st13" d="M36.7,10.2v14.3h-6.4V11.3c0-1.7-0.2-3-0.7-3.9c-0.1-0.1-0.1-0.2-0.2-0.4c-0.6-1-1.7-1.4-3.2-1.4
			c-1.1,0-2,0.2-2.7,0.6c-0.4,0.2-0.8,0.6-1.1,1c-0.8,1-1.2,2.7-1.2,5.1v12.2h-6.4V1.2H21v3.2h0.1c0.4-0.7,0.9-1.3,1.4-1.8
			c0.5-0.5,1.1-0.9,1.8-1.2c1.3-0.6,2.6-0.9,4-0.9c1.7,0,3.1,0.2,4.2,0.7c1.1,0.5,1.9,1.1,2.6,1.9c0.2,0.2,0.3,0.5,0.5,0.7
			c0.4,0.7,0.7,1.4,0.8,2.3C36.5,7.1,36.6,8,36.7,9C36.7,9.4,36.7,9.8,36.7,10.2z"/>
		<polygon class="st13" points="62.5,24.5 54.8,24.5 48.4,14.1 45.9,16.5 45.9,24.5 39.5,24.5 39.5,-7.6 45.9,-7.6 45.9,9.6 54,1.2 
			61.5,1.2 52.7,9.8 56.2,15 		"/>
		<path class="st13" d="M66.7,8.8c-0.2,0.6-0.3,1.1-0.3,1.5h5.9c-0.2,1.4-0.5,2.7-0.9,4h-5.1c0.1,2.1,0.6,3.6,1.6,4.5
			c0.4,0.4,1,0.8,1.6,1c-0.1,0.2-0.2,0.5-0.3,0.7c-0.6,1.3-1.3,2.5-2,3.7c-0.1,0-0.2-0.1-0.3-0.1c-1.5-0.6-2.7-1.4-3.7-2.5
			c-1-1.1-1.8-2.4-2.4-3.9c-0.1-0.4-0.2-0.7-0.4-1.1c-0.3-1.2-0.5-2.4-0.5-3.8c0-1.7,0.3-3.4,0.9-4.9s1.4-2.8,2.4-3.9
			c1.1-1.1,2.3-1.9,3.8-2.6c1.5-0.6,3.1-1,4.8-1c0.2,0,0.4,0,0.6,0c0.2,1.4,0.2,2.8,0.2,4.2c0,0.2,0,0.4,0,0.6c-0.3,0-0.7-0.1-1-0.1
			c-1,0-1.9,0.2-2.5,0.5c-0.7,0.3-1.2,0.8-1.6,1.3C67.2,7.7,66.9,8.2,66.7,8.8z"/>
		<path class="st13" d="M167.8,13.1c0,1.6-0.2,3.1-0.6,4.5c-0.4,1.2-0.9,2.3-1.5,3.3c-0.1,0.2-0.2,0.3-0.4,0.5
			c-0.9,1.1-1.9,2-3.2,2.6c-1.3,0.7-2.8,1-4.5,1c-0.8,0-1.5-0.1-2.2-0.3c-0.6-0.9-1.1-1.9-1.6-2.9c-0.4-0.8-0.8-1.7-1.1-2.6
			c0.2,0.2,0.4,0.3,0.6,0.4c0.7,0.4,1.6,0.6,2.6,0.6c1,0,1.9-0.2,2.6-0.6c0.7-0.4,1.3-1,1.7-1.6c0.4-0.7,0.7-1.5,0.9-2.4
			c0.2-0.9,0.3-1.8,0.3-2.8s-0.1-1.8-0.3-2.7c-0.2-0.9-0.5-1.7-1-2.4c-0.5-0.7-1-1.3-1.7-1.7c-0.7-0.4-1.6-0.7-2.6-0.7
			c-1.1,0-1.9,0.2-2.6,0.7c-0.7,0.4-1.3,1-1.7,1.7c-0.2,0.3-0.4,0.7-0.5,1c0-2.1,0.2-4.2,0.6-6.2c0.5-0.5,1.1-0.9,1.7-1.2
			c1.2-0.6,2.5-0.9,4-0.9c1.8,0,3.4,0.3,4.7,1s2.4,1.6,3.3,2.7c0.9,1.1,1.5,2.5,1.9,4C167.5,9.8,167.8,11.4,167.8,13.1z"/>
		<path class="st13" d="M184.5,1.4c-1.3-0.6-2.8-0.8-4.5-0.8c-1.8,0-3.4,0.3-4.8,1c-1.4,0.6-2.7,1.5-3.8,2.6
			c-0.1,0.2-0.3,0.3-0.4,0.5c-0.8,1-1.5,2.1-2,3.4c-0.6,1.5-0.8,3.1-0.8,4.9c0,1.8,0.3,3.5,0.8,4.9c0.5,1.5,1.3,2.8,2.4,3.9l0,0
			c1,1.1,2.2,1.9,3.7,2.5c1.4,0.6,3,0.9,4.8,0.9h0.2c0.3,0,0.5,0,0.8,0c1.2-1.7,2.1-3.7,2.8-5.8c0,0-0.1,0.1-0.1,0.1
			c-0.9,0.7-2,1-3.3,1c-1.8,0-3.2-0.5-4.1-1.4c-1-0.9-1.5-2.4-1.6-4.5h10.4c0.2-0.9,0.3-1.8,0.3-2.8c0.1-0.9,0.1-1.8,0.1-2.7
			C185.4,6.3,185.1,3.8,184.5,1.4z M174.5,10.3c0-0.5,0.1-1,0.3-1.5c0.2-0.5,0.4-1,0.8-1.5c0,0,0.1-0.1,0.1-0.1
			c0.4-0.5,0.9-0.9,1.6-1.3c0.7-0.3,1.5-0.5,2.5-0.5c1.6,0,2.7,0.4,3.5,1.3c0.8,0.8,1.3,2.1,1.6,3.7H174.5z"/>
		<path class="st8" d="M13.1,15.6c-0.1,0.8-0.3,1.6-0.6,2.3c-0.6,1.5-1.4,2.8-2.4,3.8c-1,1.1-2.3,1.9-3.8,2.5
			c-1.5,0.6-3.1,0.9-5,0.9s-3.5-0.3-5-0.9c-0.3-0.1-0.6-0.3-0.9-0.4c1.3-1.3,2.9-2.5,4.8-3.6c0.4,0.1,0.7,0.1,1.1,0.1
			c1.1,0,2-0.2,2.7-0.6c0.7-0.4,1.3-1,1.8-1.7c0.1-0.2,0.2-0.3,0.3-0.5C8.2,16.7,10.6,16,13.1,15.6z"/>
		<path class="st8" d="M14.9,15.2c2-0.3,4.2-0.5,6.4-0.6v9.8h-6.4V15.2z"/>
		<path class="st8" d="M30.3,15.1c2.2,0.3,4.4,0.7,6.4,1.2v8.2h-6.4V15.1z"/>
		<path class="st8" d="M45.9,19.9v4.5h-6.4v-7.3C41.9,17.9,44,18.8,45.9,19.9z"/>
		<path class="st12" d="M144.1,26.5c1.5-1.5,3.7-2.8,6.4-3.7v9.8h-6.4V26.5z"/>
		<path class="st12" d="M162.9,20.8c0.9,0,1.8,0,2.7,0.1c-0.1,0.2-0.2,0.3-0.4,0.5c-0.9,1.1-1.9,2-3.2,2.6c-1.3,0.7-2.8,1-4.5,1
			c-0.8,0-1.5-0.1-2.2-0.3c-0.6-0.1-1.2-0.3-1.8-0.6c-0.8-0.4-1.6-1-2.2-1.6c0.8-0.2,1.5-0.5,2.3-0.7
			C156.5,21.2,159.6,20.8,162.9,20.8z"/>
		<path class="st12" d="M179.9,25c-1.8,0-3.4-0.3-4.8-0.9c-1.5-0.6-2.7-1.4-3.7-2.5C174.8,22.4,177.7,23.6,179.9,25z"/>
		<path class="st12" d="M16.8,1.2H21v1.2C19.5,2,18.1,1.6,16.8,1.2z"/>
		<path class="st12" d="M35,3.2c0.2,0.2,0.3,0.5,0.5,0.7h-0.4c-4.4,0-8.7-0.4-12.6-1.2c0.5-0.5,1.1-0.9,1.8-1.2
			c1.3-0.6,2.6-0.9,4-0.9c1.7,0,3.1,0.2,4.2,0.7C33.5,1.7,34.4,2.4,35,3.2z"/>
		<path class="st12" d="M45.9-7.6V3c-2,0.4-4.2,0.6-6.4,0.8V-7.6H45.9z"/>
		<g>
			<g>
				<path class="st8" d="M67.3-2.5c-2.6-0.9-4.9-3.9-5.7-6.5c-0.8-2.3,0.6-2.7,2-4c1.4-1.3,2.3-3.4,4.6-3.3c3.7,0.1,5.6,3.2,6.8,6.2
					c0.2,0.5,0.8,0.6,1.1,0.1c2.6-3.8,3.3,0.9,3.4,3c0.1,1.2,1,0.3-0.1,2c-0.5,0.7-3.1,1.4-3.9,1.8c-0.7,0.3-0.1,1.4,0.6,1.1
					c1.5-0.7,4.8-1.4,5.2-3.3c0.1-0.6-0.4-1.2-0.5-1.8c-0.1-1.1,0.5-2.1,0.3-3.2c-0.7-4.4-4.6-2.6-6.3-0.1c0.4,0,0.8,0.1,1.1,0.1
					c-2.4-5.7-7.6-10.3-12.8-4.5c-1.9,2.1-4.4,2.8-3.3,5.8c1.2,3.3,3.5,6.8,6.9,7.9C67.8-1,68.1-2.2,67.3-2.5L67.3-2.5z"/>
			</g>
		</g>
		<g>
			<g>
				<path class="st8" d="M66.6-9.8c-1.1-1.5-2.3-2.8-3.8-3.9c-0.6-0.5-1.3,0.6-0.6,1.1c1.3,1,2.4,2.2,3.3,3.5
					C66-8.5,67.1-9.1,66.6-9.8L66.6-9.8z"/>
			</g>
		</g>
		<g>
			<g>
				<path class="st8" d="M70.6-11.8c-0.6-1.1-1.5-2-2.5-2.8c-0.8-0.7-1.6-1.5-2.7-1.3c-0.8,0.1-0.5,1.3,0.3,1.2
					c0.6-0.1,1.7,1.1,2.1,1.5c0.7,0.6,1.2,1.3,1.7,2.1C69.9-10.4,71-11.1,70.6-11.8L70.6-11.8z"/>
			</g>
		</g>
	</g>
</g>
<g id="Layer_6" class="st0">
</g>
<g id="Layer_5">
	<path class="st8" d="M90.7,31c-0.1-1-0.2-1.9-0.4-2.8c-0.2-0.9-0.5-1.6-0.8-2.3h-0.4c-4.4,0-8.7-0.4-12.6-1.2
		c-0.5,0.5-1,1.1-1.4,1.8H75v-2.1c-1.4-0.3-2.8-0.7-4.2-1.2h-1.9v23.2h6.4V34.3c0-2.4,0.4-4.1,1.2-5.1c0.3-0.4,0.7-0.7,1.1-1
		c0.7-0.4,1.6-0.6,2.7-0.6c1.5,0,2.6,0.5,3.2,1.4c0.1,0.1,0.1,0.2,0.2,0.4c0.5,0.9,0.7,2.2,0.7,3.9v13.1h6.4V32.2
		C90.7,31.8,90.7,31.4,90.7,31z"/>
	<path class="st8" d="M110.2,37l-3.5-5.3l8.8-8.5H108l-8,8.4V25c-2,0.4-4.2,0.6-6.4,0.8v20.7h6.4v-8l2.5-2.4l6.4,10.4h7.7L110.2,37z
		"/>
	<path class="st8" d="M136.7,31.2c-0.4-1.7-1.1-3.1-2.1-4.4c-0.9-1.3-2.1-2.3-3.6-3.1c-1.3-0.7-2.8-1.1-4.5-1.1c-0.2,0-0.4,0-0.6,0
		c-1.8,0-3.4,0.3-4.8,1c-1.5,0.6-2.7,1.5-3.8,2.6c-1,1.1-1.8,2.4-2.4,3.9s-0.9,3.1-0.9,4.9c0,1.4,0.2,2.6,0.5,3.8
		c0.1,0.4,0.2,0.8,0.4,1.1c0.6,1.5,1.3,2.8,2.4,3.9c1,1.1,2.3,1.9,3.7,2.5c0.1,0,0.2,0.1,0.3,0.1c0.7-1.2,1.4-2.5,2-3.7
		c2.5,1.2,4.9,2.5,7.1,3.8c0.8-0.3,1.6-0.7,2.3-1.1c1.8-1.2,3.2-3.2,4.1-6h-5.6c-0.2,0.7-0.8,1.4-1.7,2c-0.9,0.7-2,1-3.3,1
		c-1,0-1.8-0.1-2.6-0.4c-0.6-0.2-1.1-0.6-1.6-1c-1-0.9-1.5-2.4-1.6-4.5h16.8C137.3,34.6,137.2,32.9,136.7,31.2z M120.4,32.3
		c0-0.5,0.1-1,0.3-1.5c0.2-0.6,0.5-1.1,0.8-1.6c0.4-0.5,1-0.9,1.6-1.3c0.7-0.3,1.5-0.5,2.5-0.5c0.4,0,0.7,0,1,0.1
		c1,0.1,1.9,0.5,2.4,1.2c0.8,0.8,1.3,2.1,1.6,3.7H120.4z"/>
	<path class="st8" d="M152.4,27.3c0.3-1.4,0.7-2.8,1.2-4.1h-1.1l-5.1,15.9h-0.1L142,23.2h-6.8l8.1,21.8c0.2,0.5,0.3,0.9,0.3,1.4
		c0,0.7-0.2,1.3-0.6,1.9c-0.4,0.6-1,0.9-1.9,1c-0.6,0-1.3,0-1.9,0s-1.2-0.1-1.8-0.2V51c1.6,1.2,3.1,2.4,4.4,3.6c2,0,3.5-0.5,4.7-1.2
		c1.2-0.8,2.2-2.2,2.9-4l3.1-8.4c-0.3-1.1-0.5-2.3-0.7-3.4C151.4,34.2,151.6,30.8,152.4,27.3z"/>
	<path class="st8" d="M221.1,30.3c-0.4-1.5-1.1-2.8-1.9-4c-0.9-1.1-2-2-3.3-2.7s-2.9-1-4.7-1c-1.4,0-2.8,0.3-4,0.9
		c-0.6,0.3-1.2,0.7-1.7,1.2c-0.5,0.4-0.9,1-1.3,1.6h-0.1v-3h-4.5c0.4,1.3,0.7,2.7,0.9,4.2c0.1,1.1,0.2,2.2,0.2,3.3
		c0,2.3-0.3,4.7-0.8,7.1c-0.4,1.6-0.8,3.2-1.4,4.6c-0.1,0.4-0.3,0.8-0.5,1.2v5c1.5-1.5,3.7-2.8,6.4-3.7v-1.2h0.1
		c0.2,0.3,0.5,0.7,0.8,0.9c0.8-0.2,1.5-0.5,2.3-0.7c2.8-0.7,5.9-1,9.2-1c0.9,0,1.8,0,2.7,0.1c0.7-1,1.2-2.1,1.5-3.3
		c0.4-1.4,0.6-2.9,0.6-4.5C221.8,33.4,221.5,31.8,221.1,30.3z M215.1,37.6c-0.2,0.9-0.5,1.7-0.9,2.4c-0.4,0.7-1,1.2-1.7,1.6
		c-0.7,0.4-1.6,0.6-2.6,0.6c-1,0-1.9-0.2-2.6-0.6c-0.2-0.1-0.4-0.3-0.6-0.4c-0.5-0.3-0.8-0.8-1.1-1.2c-0.4-0.7-0.8-1.5-0.9-2.4
		c-0.2-0.9-0.3-1.8-0.3-2.8c0-1,0.1-1.9,0.3-2.8c0.1-0.5,0.2-0.9,0.4-1.3c0.1-0.4,0.3-0.7,0.5-1c0.4-0.7,1-1.2,1.7-1.7
		c0.7-0.4,1.6-0.7,2.6-0.7c1,0,1.9,0.2,2.6,0.7c0.7,0.4,1.3,1,1.7,1.7c0.4,0.7,0.8,1.5,1,2.4c0.2,0.9,0.3,1.8,0.3,2.7
		S215.3,36.7,215.1,37.6z"/>
	<path class="st8" d="M245.3,35.6c-2.1-0.6-4.1-1.2-6.1-2c0.1-0.9,0.1-1.8,0.1-2.7c0-2.6-0.3-5.1-0.9-7.5c-1.3-0.6-2.8-0.8-4.5-0.8
		c-1.8,0-3.4,0.3-4.8,1c-1.4,0.6-2.7,1.5-3.8,2.6c-0.1,0.2-0.3,0.3-0.4,0.5c-0.8,1-1.5,2.1-2,3.4c-0.6,1.5-0.8,3.1-0.8,4.9
		c0,1.8,0.3,3.5,0.8,4.9c0.5,1.5,1.3,2.8,2.4,3.9l0,0c3.4,0.7,6.4,1.9,8.5,3.4h0.2c0.3,0,0.5,0,0.8,0c2.3-0.1,4.3-0.7,5.9-1.8
		c1.9-1.2,3.2-3.2,4.1-6h-5.6c-0.2,0.7-0.7,1.4-1.6,2c0,0-0.1,0.1-0.1,0.1c-0.9,0.7-2,1-3.3,1c-1.8,0-3.2-0.5-4.1-1.4
		c-1-0.9-1.5-2.4-1.6-4.5h16.8C245.3,36.1,245.3,35.8,245.3,35.6z M228.5,32.3c0-0.5,0.1-1,0.3-1.5c0.2-0.5,0.4-1,0.8-1.5
		c0,0,0.1-0.1,0.1-0.1c0.4-0.5,0.9-0.9,1.6-1.3c0.7-0.3,1.5-0.5,2.5-0.5c1.6,0,2.7,0.4,3.5,1.3c0.8,0.8,1.3,2.1,1.6,3.7H228.5z"/>
	<path class="st8" d="M246.7,35.9v10.5h6.4v-9.1C250.9,37,248.8,36.5,246.7,35.9z"/>
	<path class="st8" d="M283.2,44.3c-0.1-1-0.2-2-0.2-3v-2.5c-2.2,0.2-4.3,0.3-6.5,0.4c-0.1,0.5-0.3,1-0.6,1.5
		c-0.3,0.6-0.8,1.1-1.5,1.5c-0.7,0.4-1.7,0.6-2.9,0.6c-0.5,0-1,0-1.5-0.1c-0.5-0.1-0.9-0.2-1.3-0.5c-0.4-0.2-0.7-0.5-0.9-0.9
		c-0.2-0.4-0.3-0.9-0.3-1.4c0-0.3,0-0.5,0.1-0.8c-2.1-0.1-4.2-0.3-6.3-0.5c-0.1,0.5-0.1,1-0.1,1.5c0,1.2,0.2,2.2,0.6,3.1
		c0.4,0.9,1,1.6,1.7,2.2c0.7,0.6,1.6,1,2.5,1.3c1,0.3,2,0.4,3.1,0.4c1.4,0,2.8-0.2,4.2-0.6c1.4-0.4,2.6-1.2,3.6-2.2
		c0,0.4,0.1,0.8,0.2,1.1c0.1,0.4,0.2,0.7,0.3,1.1h6.5C283.5,46,283.3,45.3,283.2,44.3z"/>
	<path class="st8" d="M199.6,27.6c-0.2-1.5-0.5-2.9-0.9-4.2c-0.5-1.6-1.1-3.1-1.9-4.5c-1.5-2.6-3.5-4.9-6-6.8
		c-2.5-1.9-5.6-3.2-9.2-4c-3.6-0.8-6.9-0.9-10-0.2c-3.1,0.6-5.9,1.8-8.3,3.6c-2.4,1.7-4.5,4-6.2,6.7l0,0.1c-0.7,1.2-1.4,2.5-2,3.8
		c-0.7,1.7-1.3,3.6-1.8,5.6c-0.8,3.4-0.9,6.7-0.5,9.8c0.4,3.1,1.3,6,2.8,8.6c1.4,2.6,3.5,4.8,6,6.7c2.5,1.8,5.6,3.2,9.2,4
		c3.6,0.8,7,0.9,10,0.3c3.1-0.6,5.9-1.8,8.2-3.5c2.4-1.7,4.5-4,6.2-6.7c0.9-1.5,1.7-3.1,2.3-4.7c0.5-1.4,1-2.9,1.3-4.5
		C199.7,34.2,199.9,30.8,199.6,27.6z M193.8,43.3c-0.3,1.6-1,3-1.8,4.2c-0.8,1.2-1.9,2.2-3.2,3c-2.8,1.7-6.2,2.3-9.3,2.3
		c-3.3,0-6.3-0.6-7.9-1c-2.5-0.6-11-3.1-14.8-9.4c-1.6-2.8-2-5.8-1.2-9.1c1.1-4.1,4.9-7.2,9.1-7.4c2.8-0.1,5.3,0.6,7.8,1.4
		c1.6,0.5,3.3,1,5,1.2c0.9,0.1,1.9,0.2,2.8,0.3c3,0.3,5.9,0.5,8.6,2.6C193.2,34.4,194.8,38.6,193.8,43.3z M181.6,27.3
		c-0.2,0.8-1.5,0.4-1.2-0.3c0.7-2.3-2.3-4.5-4.1-2c-0.4,0.6-1.3,0.2-1.1-0.5c0.5-2.6-4.2-1.3-3.7-0.2c0.4,0.7-0.7,1.3-1.1,0.6
		c-1.6-3.2,4.8-4.4,5.9-1.6C178.9,21.7,182.8,23.7,181.6,27.3z M180.7,21c0-0.6,0.6-1.3,1.2-1.2c1.9,0.2,3.6,1,4.8,2.5
		c0.4,0.5,0.5,1.2,0,1.8c-0.4,0.4-1.3,0.5-1.8,0c-0.8-0.9-1.8-1.6-3-1.8C181.3,22.1,180.7,21.7,180.7,21z M171.4,20.2
		c-1.1-0.1-2.2-0.1-3.3,0.2c-1.6,0.4-2.2-2-0.7-2.4c1.3-0.4,2.6-0.5,3.9-0.3c0.7,0.1,1.2,0.5,1.2,1.2
		C172.7,19.6,172.1,20.3,171.4,20.2z M193.1,19.7c-2.7-3.9-5.5-6.2-10.7-4.6c-1.1,0.4-2.5,1.4-3.8,1.4c-1.5,0-1.4-0.3-2.7-1
		c-1.4-0.8-1.4-2-3.3-2.9c-1.7-0.8-3.7-1.1-5.6-1c-0.8,0-0.8-1.2,0-1.2c3.2-0.2,4.8,0.6,7.5,2c1.9,1,3.6,2.2,6,2.1
		c1-0.1,2.3-0.9,3.4-1.1c4.7-1,7.6,2,10.1,5.7C194.6,19.7,193.5,20.3,193.1,19.7z"/>
	<path class="st14" d="M199.7,23.1c-0.5-1.7-1.2-3.2-2-4.7c-1.5-2.8-3.6-5.1-6.3-7.1c-2.6-1.9-5.9-3.3-9.6-4.2
		c-3.7-0.8-7.2-0.9-10.4-0.2c-3.2,0.6-6.2,1.9-8.7,3.8c-2.5,1.8-4.7,4.2-6.4,7l-0.1,0.1c-0.8,1.2-1.4,2.6-2,3.9
		c-0.2,0.5-0.5,1.1-0.7,1.7h1.1c0.2-0.4,0.3-0.9,0.5-1.3c0.6-1.3,1.2-2.6,2-3.8l-0.4-0.3l0.5,0.2c1.7-2.7,3.8-5,6.2-6.7
		c2.5-1.8,5.2-3,8.3-3.6c3.1-0.6,6.4-0.6,10,0.2c3.6,0.8,6.7,2.1,9.2,4c2.5,1.9,4.5,4.1,6,6.8c0.8,1.4,1.4,2.9,1.8,4.4h1
		C199.7,23.2,199.7,23.1,199.7,23.1z M195.3,46.8c-1.7,2.7-3.8,4.9-6.2,6.7c-2.4,1.7-5.2,2.9-8.2,3.5c-3.1,0.6-6.4,0.5-10-0.3
		c-3.6-0.8-6.7-2.1-9.2-4c-2.6-1.9-4.6-4.1-6-6.7c-1.2-2.1-2-4.3-2.5-6.8l-0.6,1.7c0.5,2,1.3,3.8,2.2,5.6c1.5,2.7,3.6,5,6.3,7
		c2.6,1.9,5.9,3.3,9.6,4.1c2.1,0.5,4.2,0.7,6.1,0.7c1.5,0,2.9-0.1,4.3-0.4c3.2-0.6,6.1-1.9,8.6-3.7c2.5-1.8,4.7-4.2,6.5-6.9
		c0.8-1.2,1.4-2.4,2-3.7v-2.8c-0.1,0.5-0.3,0.9-0.5,1.3C197,43.7,196.2,45.3,195.3,46.8z"/>
	<path class="st15" d="M41.6,30.9v15.6h-6.4V33.3c0-0.8,0-1.5-0.1-2.2s-0.2-1.3-0.5-1.8c-0.3-0.5-0.7-0.9-1.2-1.2
		c-0.5-0.3-1.2-0.5-2.1-0.5c-0.9,0-1.6,0.2-2.2,0.5c-0.6,0.3-1,0.8-1.3,1.3c-0.3,0.6-0.5,1.2-0.6,1.9c-0.1,0.7-0.2,1.4-0.2,2.1v13
		h-6.4v-13c0-0.7,0-1.4,0-2c0-0.7-0.2-1.3-0.4-1.9c-0.2-0.6-0.6-1-1.1-1.4c-0.5-0.3-1.3-0.5-2.3-0.5c-0.3,0-0.7,0.1-1.2,0.2
		c-0.5,0.1-1,0.4-1.4,0.8c-0.5,0.4-0.9,0.9-1.2,1.6c-0.3,0.7-0.5,1.6-0.5,2.8v13.5H6.1v-17c5.5-1.8,12.1-3.2,19.5-3.9
		c0.2,0.3,0.4,0.6,0.5,1c0.3-0.4,0.6-0.8,0.9-1.1c4-0.4,8.1-0.6,12.5-0.6c0.6,0.6,1.1,1.4,1.5,2.3C41.4,28.1,41.6,29.4,41.6,30.9z"
		/>
	<path class="st12" d="M25.6,25.5c-7.4,0.8-14,2.1-19.5,3.9v-6.2h6v3.1h0.1c0.8-1.2,1.8-2.1,3-2.8c1.2-0.7,2.5-1,4.1-1
		c1.5,0,2.8,0.3,4,0.9C24.3,23.9,25,24.5,25.6,25.5z"/>
	<path class="st12" d="M39.5,24.7c-4.4,0-8.5,0.2-12.5,0.6c0.5-0.6,1.2-1.1,1.9-1.6c1.2-0.8,2.6-1.2,4.2-1.2c1.2,0,2.4,0.2,3.4,0.5
		c1,0.3,1.9,0.8,2.7,1.4C39.3,24.5,39.4,24.6,39.5,24.7z"/>
	<path class="st12" d="M41.6,30.9v15.6h-6.4V33.3c0-0.8,0-1.5-0.1-2.2s-0.2-1.3-0.5-1.8c-0.3-0.5-0.7-0.9-1.2-1.2
		c-0.5-0.3-1.2-0.5-2.1-0.5c-0.9,0-1.6,0.2-2.2,0.5c-0.6,0.3-1,0.8-1.3,1.3c-0.3,0.6-0.5,1.2-0.6,1.9c-0.1,0.7-0.2,1.4-0.2,2.1v13
		h-6.4v-13c0-0.7,0-1.4,0-2c0-0.7-0.2-1.3-0.4-1.9c-0.2-0.6-0.6-1-1.1-1.4c-0.5-0.3-1.3-0.5-2.3-0.5c-0.3,0-0.7,0.1-1.2,0.2
		c-0.5,0.1-1,0.4-1.4,0.8c-0.5,0.4-0.9,0.9-1.2,1.6c-0.3,0.7-0.5,1.6-0.5,2.8v13.5H6.1v-17c5.5-1.8,12.1-3.2,19.5-3.9
		c0.2,0.3,0.4,0.6,0.5,1c0.3-0.4,0.6-0.8,0.9-1.1c4-0.4,8.1-0.6,12.5-0.6c0.6,0.6,1.1,1.4,1.5,2.3C41.4,28.1,41.6,29.4,41.6,30.9z"
		/>
	<path class="st8" d="M39.2,24.5c-0.8-0.7-1.6-1.1-2.7-1.4c-1-0.3-2.2-0.5-3.4-0.5c-1.6,0-3,0.4-4.2,1.2c-0.7,0.5-1.4,1-1.9,1.6
		c4-0.4,8.1-0.6,12.5-0.6C39.4,24.6,39.3,24.5,39.2,24.5z M23.4,23.4c-1.2-0.6-2.6-0.9-4-0.9c-1.5,0-2.9,0.3-4.1,1
		c-1.2,0.7-2.2,1.6-3,2.8h-0.1v-3.1h-6v6.2c5.5-1.8,12.1-3.2,19.5-3.9C25,24.5,24.3,23.9,23.4,23.4z"/>
	<path class="st12" d="M43.6,31.7c-0.2,1-0.3,2.1-0.3,3.2c0,1.9,0.3,3.5,0.9,5c0.6,1.5,1.4,2.8,2.4,3.8c0.5,0.5,1,0.9,1.5,1.3
		C45.8,40.9,44.2,36.4,43.6,31.7z"/>
	<path class="st12" d="M77.6,28.2c-0.4,0.2-0.8,0.6-1.1,1c-0.8,1-1.2,2.7-1.2,5.1v12.2h-6.4V26.8c1.8,0.3,3.7,0.6,5.6,0.9
		C75.5,27.8,76.6,28,77.6,28.2z"/>
	<path class="st12" d="M90.7,32.2v14.3h-6.4V33.3c0-1.7-0.2-3-0.7-3.9c2.4,0.5,4.7,1.1,7,1.6C90.7,31.4,90.7,31.8,90.7,32.2z"/>
	<path class="st12" d="M116.5,46.5h-7.7l-6.4-10.4l-2.5,2.4v8h-6.4V31.8c5.9,1.6,11.5,3.3,16.7,5.2L116.5,46.5z"/>
	<path class="st12" d="M130.4,46.3c-1.3,0.5-2.8,0.7-4.5,0.7c-1.7,0-3.3-0.2-4.7-0.8c-0.1,0-0.2-0.1-0.3-0.1
		c-1.5-0.6-2.7-1.4-3.7-2.5c-1-1.1-1.8-2.4-2.4-3.9c-0.1-0.4-0.2-0.7-0.4-1.1c3.1,1.2,6,2.5,8.7,3.9C125.8,43.8,128.2,45,130.4,46.3
		z"/>
	<path class="st12" d="M130.4,46.3c-1.3,0.5-2.8,0.7-4.5,0.7c-1.7,0-3.3-0.2-4.7-0.8c0.7-1.2,1.4-2.5,2-3.7
		C125.8,43.8,128.2,45,130.4,46.3z"/>
	<path class="st12" d="M141.8,54.6c-0.2,0-0.3,0-0.5,0c-0.7,0-1.3,0-2-0.1c-0.6,0-1.3-0.1-2-0.2V51
		C139.1,52.2,140.5,53.4,141.8,54.6z"/>
	<path class="st12" d="M239.3,33.6c0.1-0.9,0.1-1.8,0.1-2.7c0-2.6-0.3-5.1-0.9-7.5c0.2,0.1,0.5,0.2,0.7,0.3c1.5,0.8,2.7,1.8,3.6,3.1
		c0.9,1.3,1.6,2.8,2,4.4c0.4,1.4,0.5,2.8,0.5,4.3C243.2,35,241.2,34.3,239.3,33.6z"/>
	<path class="st12" d="M261.7,28.7c-0.3-0.1-0.7-0.1-1.1-0.1c-0.4,0-0.8-0.1-1.2-0.1c-1.2,0-2.2,0.2-3,0.6c-0.8,0.4-1.5,0.9-1.9,1.6
		c-0.5,0.7-0.9,1.5-1.1,2.4c-0.2,0.9-0.3,1.9-0.3,2.9v1.4c-2.2-0.4-4.3-0.9-6.4-1.5V23.2h6.1v4.3h0.1c0.3-0.7,0.7-1.4,1.2-2
		c0.5-0.6,1.1-1.1,1.8-1.6c0.7-0.4,1.4-0.8,2.1-1s1.5-0.4,2.3-0.4c0.4,0,0.9,0.1,1.4,0.2V28.7z"/>
	<path class="st12" d="M283,29.2v9.6c-2.2,0.2-4.3,0.3-6.5,0.4c0-0.1,0-0.2,0-0.3c0.1-0.6,0.1-1.1,0.1-1.4v-2.4
		c-0.3,0.2-0.6,0.4-1,0.6c-0.4,0.1-0.8,0.2-1.3,0.3c-0.5,0.1-1,0.2-1.5,0.2s-1,0.1-1.5,0.2c-0.5,0.1-1,0.2-1.4,0.4
		c-0.5,0.1-0.9,0.3-1.2,0.6c-0.4,0.2-0.6,0.6-0.8,1c-0.1,0.2-0.2,0.4-0.2,0.7c-2.1-0.1-4.2-0.3-6.3-0.5c0.1-0.7,0.3-1.2,0.6-1.7
		c0.5-0.8,1.1-1.5,1.8-2c0.7-0.5,1.6-0.9,2.5-1.1c0.9-0.3,1.9-0.5,2.9-0.6c1-0.1,1.9-0.3,2.8-0.4s1.8-0.2,2.5-0.4
		c0.7-0.2,1.3-0.4,1.7-0.8c0.4-0.3,0.6-0.8,0.6-1.5c0-0.7-0.1-1.2-0.3-1.6c-0.2-0.4-0.5-0.7-0.9-0.9c-0.4-0.2-0.8-0.4-1.3-0.4
		c-0.5-0.1-1-0.1-1.6-0.1c-1.3,0-2.2,0.3-3,0.8c-0.7,0.5-1.1,1.4-1.3,2.7h-6.4c0.1-1.5,0.5-2.7,1.1-3.7c0.7-1,1.5-1.8,2.5-2.4
		c1-0.6,2.2-1,3.4-1.3c1.3-0.3,2.5-0.4,3.8-0.4c1.2,0,2.4,0.1,3.5,0.2c1.2,0.2,2.3,0.5,3.3,1c1,0.5,1.8,1.1,2.4,2
		C282.7,26.6,283,27.8,283,29.2z"/>
	<path class="st8" d="M283.8,46.5h-6.5c-0.1-0.4-0.2-0.7-0.3-1.1c-0.1-0.4-0.1-0.8-0.2-1.1c-1,1-2.2,1.8-3.6,2.2
		c-1.4,0.4-2.8,0.6-4.2,0.6c-1.1,0-2.1-0.1-3.1-0.4c-1-0.3-1.8-0.7-2.5-1.3c-0.7-0.6-1.3-1.3-1.7-2.2c-0.4-0.9-0.6-1.9-0.6-3.1
		c0-0.5,0-1.1,0.1-1.5c2.1,0.2,4.2,0.4,6.3,0.5c0,0.2-0.1,0.5-0.1,0.8c0,0.6,0.1,1,0.3,1.4c0.2,0.4,0.5,0.7,0.9,0.9
		c0.4,0.2,0.8,0.4,1.3,0.5c0.5,0.1,1,0.1,1.5,0.1c1.3,0,2.2-0.2,2.9-0.6c0.7-0.4,1.2-0.9,1.5-1.5c0.3-0.5,0.5-1,0.6-1.5
		c2.2-0.1,4.4-0.2,6.5-0.4v2.5c0,1,0.1,2,0.2,3C283.3,45.3,283.5,46,283.8,46.5z"/>
	<path class="st12" d="M283,29.2v9.6c-2.2,0.2-4.3,0.3-6.5,0.4c0-0.1,0-0.2,0-0.3c0.1-0.6,0.1-1.1,0.1-1.4v-2.4
		c-0.3,0.2-0.6,0.4-1,0.6c-0.4,0.1-0.8,0.2-1.3,0.3c-0.5,0.1-1,0.2-1.5,0.2s-1,0.1-1.5,0.2c-0.5,0.1-1,0.2-1.4,0.4
		c-0.5,0.1-0.9,0.3-1.2,0.6c-0.4,0.2-0.6,0.6-0.8,1c-0.1,0.2-0.2,0.4-0.2,0.7c-2.1-0.1-4.2-0.3-6.3-0.5c0.1-0.7,0.3-1.2,0.6-1.7
		c0.5-0.8,1.1-1.5,1.8-2c0.7-0.5,1.6-0.9,2.5-1.1c0.9-0.3,1.9-0.5,2.9-0.6c1-0.1,1.9-0.3,2.8-0.4s1.8-0.2,2.5-0.4
		c0.7-0.2,1.3-0.4,1.7-0.8c0.4-0.3,0.6-0.8,0.6-1.5c0-0.7-0.1-1.2-0.3-1.6c-0.2-0.4-0.5-0.7-0.9-0.9c-0.4-0.2-0.8-0.4-1.3-0.4
		c-0.5-0.1-1-0.1-1.6-0.1c-1.3,0-2.2,0.3-3,0.8c-0.7,0.5-1.1,1.4-1.3,2.7h-6.4c0.1-1.5,0.5-2.7,1.1-3.7c0.7-1,1.5-1.8,2.5-2.4
		c1-0.6,2.2-1,3.4-1.3c1.3-0.3,2.5-0.4,3.8-0.4c1.2,0,2.4,0.1,3.5,0.2c1.2,0.2,2.3,0.5,3.3,1c1,0.5,1.8,1.1,2.4,2
		C282.7,26.6,283,27.8,283,29.2z"/>
	<path class="st13" d="M66.5,29.8c-0.5-1.4-1.2-2.6-2.2-3.6c-0.1-0.1-0.2-0.2-0.2-0.3c-1-1.1-2.3-1.9-3.8-2.5
		c-1.5-0.6-3.1-0.9-5-0.9s-3.5,0.3-5,0.9c-0.9,0.4-1.8,0.8-2.5,1.4c-0.4,0.3-0.8,0.7-1.2,1.1c-1.1,1.1-1.9,2.4-2.4,3.9
		c-0.2,0.6-0.4,1.2-0.5,1.9c0.6,4.8,2.2,9.3,4.5,13.3c0.4,0.3,0.9,0.5,1.3,0.8c0.3,0.1,0.6,0.3,0.9,0.4c1.5,0.6,3.1,0.9,5,0.9
		s3.5-0.3,5-0.9c1.5-0.6,2.8-1.4,3.8-2.5c1-1.1,1.8-2.3,2.4-3.8c0.3-0.7,0.5-1.5,0.6-2.3c0.2-0.8,0.2-1.8,0.2-2.7
		C67.3,33,67,31.3,66.5,29.8z M59.7,40c-0.4,0.7-1,1.3-1.8,1.7c-0.7,0.4-1.6,0.6-2.7,0.6c-0.4,0-0.8,0-1.1-0.1
		c-0.6-0.1-1.1-0.3-1.6-0.5c-0.7-0.4-1.3-1-1.7-1.7c-0.4-0.7-0.7-1.5-0.9-2.4c-0.2-0.9-0.3-1.8-0.3-2.7c0-0.9,0.1-1.8,0.3-2.7
		c0.2-0.9,0.5-1.7,0.9-2.4c0.4-0.7,1-1.2,1.7-1.7c0.7-0.4,1.6-0.7,2.7-0.7s2,0.2,2.7,0.7c0.7,0.4,1.3,1,1.8,1.7
		c0.4,0.7,0.7,1.5,0.9,2.4c0.2,0.9,0.3,1.8,0.3,2.7c0,0.9-0.1,1.8-0.3,2.7c-0.1,0.7-0.4,1.3-0.6,1.9C59.9,39.6,59.8,39.8,59.7,40z"
		/>
	<path class="st13" d="M90.7,32.2v14.3h-6.4V33.3c0-1.7-0.2-3-0.7-3.9c-0.1-0.1-0.1-0.2-0.2-0.4c-0.6-1-1.7-1.4-3.2-1.4
		c-1.1,0-2,0.2-2.7,0.6c-0.4,0.2-0.8,0.6-1.1,1c-0.8,1-1.2,2.7-1.2,5.1v12.2h-6.4V23.2h1.9c1.3,0.4,2.7,0.8,4.2,1.2v2.1h0.1
		c0.4-0.7,0.9-1.3,1.4-1.8c3.9,0.8,8.2,1.2,12.6,1.2h0.4c0.4,0.7,0.7,1.4,0.8,2.3c0.2,0.9,0.3,1.8,0.4,2.8
		C90.7,31.4,90.7,31.8,90.7,32.2z"/>
	<path class="st13" d="M116.5,46.5h-7.7l-6.4-10.4l-2.5,2.4v8h-6.4V25.8c2.2-0.1,4.3-0.4,6.4-0.8v6.5l8-8.4h7.5l-8.8,8.5l3.5,5.3
		L116.5,46.5z"/>
	<path class="st13" d="M120.7,30.8c-0.2,0.6-0.3,1.1-0.3,1.5h5.9c-0.2,1.4-0.5,2.7-0.9,4h-5.1c0.1,2.1,0.6,3.6,1.6,4.5
		c0.4,0.4,1,0.8,1.6,1c-0.1,0.2-0.2,0.5-0.3,0.7c-0.6,1.3-1.3,2.5-2,3.7c-0.1,0-0.2-0.1-0.3-0.1c-1.5-0.6-2.7-1.4-3.7-2.5
		c-1-1.1-1.8-2.4-2.4-3.9c-0.1-0.4-0.2-0.7-0.4-1.1c-0.3-1.2-0.5-2.4-0.5-3.8c0-1.7,0.3-3.4,0.9-4.9s1.4-2.8,2.4-3.9
		c1.1-1.1,2.3-1.9,3.8-2.6c1.5-0.6,3.1-1,4.8-1c0.2,0,0.4,0,0.6,0c0.2,1.4,0.2,2.8,0.2,4.2c0,0.2,0,0.4,0,0.6c-0.3,0-0.7-0.1-1-0.1
		c-1,0-1.9,0.2-2.5,0.5c-0.7,0.3-1.2,0.8-1.6,1.3C121.2,29.7,120.9,30.2,120.7,30.8z"/>
	<path class="st13" d="M120.7,30.8c-0.2,0.6-0.3,1.1-0.3,1.5h5.9c-0.2,1.4-0.5,2.7-0.9,4h-5.1c0.1,2.1,0.6,3.6,1.6,4.5
		c0.4,0.4,1,0.8,1.6,1c-0.1,0.2-0.2,0.5-0.3,0.7c-0.6,1.3-1.3,2.5-2,3.7c-0.1,0-0.2-0.1-0.3-0.1c-1.5-0.6-2.7-1.4-3.7-2.5
		c-1-1.1-1.8-2.4-2.4-3.9c-0.1-0.4-0.2-0.7-0.4-1.1c-0.3-1.2-0.5-2.4-0.5-3.8c0-1.7,0.3-3.4,0.9-4.9s1.4-2.8,2.4-3.9
		c1.1-1.1,2.3-1.9,3.8-2.6c1.5-0.6,3.1-1,4.8-1c0.2,0,0.4,0,0.6,0c0.2,1.4,0.2,2.8,0.2,4.2c0,0.2,0,0.4,0,0.6c-0.3,0-0.7-0.1-1-0.1
		c-1,0-1.9,0.2-2.5,0.5c-0.7,0.3-1.2,0.8-1.6,1.3C121.2,29.7,120.9,30.2,120.7,30.8z"/>
	<path class="st13" d="M221.8,35.1c0,1.6-0.2,3.1-0.6,4.5c-0.4,1.2-0.9,2.3-1.5,3.3c-0.9,0-1.8-0.1-2.7-0.1c-3.3,0-6.4,0.4-9.2,1
		c-0.4-0.8-0.8-1.7-1.1-2.6c0.2,0.2,0.4,0.3,0.6,0.4c0.7,0.4,1.6,0.6,2.6,0.6c1,0,1.9-0.2,2.6-0.6c0.7-0.4,1.3-1,1.7-1.6
		c0.4-0.7,0.7-1.5,0.9-2.4c0.2-0.9,0.3-1.8,0.3-2.8s-0.1-1.8-0.3-2.7c-0.2-0.9-0.5-1.7-1-2.4c-0.5-0.7-1-1.3-1.7-1.7
		c-0.7-0.4-1.6-0.7-2.6-0.7c-1.1,0-1.9,0.2-2.6,0.7c-0.7,0.4-1.3,1-1.7,1.7c-0.2,0.3-0.4,0.7-0.5,1c0-2.1,0.2-4.2,0.6-6.2
		c0.5-0.5,1.1-0.9,1.7-1.2c1.2-0.6,2.5-0.9,4-0.9c1.8,0,3.4,0.3,4.7,1s2.4,1.6,3.3,2.7c0.9,1.1,1.5,2.5,1.9,4
		C221.5,31.8,221.8,33.4,221.8,35.1z"/>
	<path class="st13" d="M238.5,23.4c-1.3-0.6-2.8-0.8-4.5-0.8c-1.8,0-3.4,0.3-4.8,1c-1.4,0.6-2.7,1.5-3.8,2.6
		c-0.1,0.2-0.3,0.3-0.4,0.5c-0.8,1-1.5,2.1-2,3.4c-0.6,1.5-0.8,3.1-0.8,4.9c0,1.8,0.3,3.5,0.8,4.9c0.5,1.5,1.3,2.8,2.4,3.9l0,0
		c3.4,0.7,6.4,1.9,8.5,3.4h0.2c0.3,0,0.5,0,0.8,0c1.2-1.7,2.1-3.7,2.8-5.8c0,0-0.1,0.1-0.1,0.1c-0.9,0.7-2,1-3.3,1
		c-1.8,0-3.2-0.5-4.1-1.4c-1-0.9-1.5-2.4-1.6-4.5h10.4c0.2-0.9,0.3-1.8,0.3-2.8c0.1-0.9,0.1-1.8,0.1-2.7
		C239.4,28.3,239.1,25.8,238.5,23.4z M228.5,32.3c0-0.5,0.1-1,0.3-1.5c0.2-0.5,0.4-1,0.8-1.5c0,0,0.1-0.1,0.1-0.1
		c0.4-0.5,0.9-0.9,1.6-1.3c0.7-0.3,1.5-0.5,2.5-0.5c1.6,0,2.7,0.4,3.5,1.3c0.8,0.8,1.3,2.1,1.6,3.7H228.5z"/>
	<path class="st8" d="M67.1,37.6c-0.1,0.8-0.3,1.6-0.6,2.3c-0.6,1.5-1.4,2.8-2.4,3.8c-1,1.1-2.3,1.9-3.8,2.5c-1.5,0.6-3.1,0.9-5,0.9
		s-3.5-0.3-5-0.9c-0.3-0.1-0.6-0.3-0.9-0.4c1.3-1.3,2.9-2.5,4.8-3.6c0.4,0.1,0.7,0.1,1.1,0.1c1.1,0,2-0.2,2.7-0.6
		c0.7-0.4,1.3-1,1.8-1.7c0.1-0.2,0.2-0.3,0.3-0.5C62.2,38.7,64.6,38,67.1,37.6z"/>
	<path class="st8" d="M68.9,37.2c2-0.3,4.2-0.5,6.4-0.6v9.8h-6.4V37.2z"/>
	<path class="st8" d="M84.3,37.1c2.2,0.3,4.4,0.7,6.4,1.2v8.2h-6.4V37.1z"/>
	<path class="st8" d="M99.9,41.9v4.5h-6.4v-7.3C95.9,39.9,98,40.8,99.9,41.9z"/>
	<path class="st12" d="M198.1,48.5c1.5-1.5,3.7-2.8,6.4-3.7v9.8h-6.4V48.5z"/>
	<path class="st12" d="M216.9,42.8c0.9,0,1.8,0,2.7,0.1c-0.1,0.2-0.2,0.3-0.4,0.5c-0.9,1.1-1.9,2-3.2,2.6c-1.3,0.7-2.8,1-4.5,1
		c-0.8,0-1.5-0.1-2.2-0.3c-0.6-0.1-1.2-0.3-1.8-0.6c-0.8-0.4-1.6-1-2.2-1.6c0.8-0.2,1.5-0.5,2.3-0.7
		C210.5,43.2,213.6,42.8,216.9,42.8z"/>
	<path class="st12" d="M233.9,47c-1.8,0-3.4-0.3-4.8-0.9c-1.5-0.6-2.7-1.4-3.7-2.5C228.8,44.4,231.7,45.6,233.9,47z"/>
	<path class="st12" d="M70.8,23.2H75v1.2C73.5,24,72.1,23.6,70.8,23.2z"/>
	<path class="st12" d="M89,25.2c0.2,0.2,0.3,0.5,0.5,0.7h-0.4c-4.4,0-8.7-0.4-12.6-1.2c0.5-0.5,1.1-0.9,1.8-1.2
		c1.3-0.6,2.6-0.9,4-0.9c1.7,0,3.1,0.2,4.2,0.7C87.5,23.7,88.4,24.4,89,25.2z"/>
	<path class="st12" d="M99.9,14.4V25c-2,0.4-4.2,0.6-6.4,0.8V14.4H99.9z"/>
	<g>
		<path class="st8" d="M121.3,19.5c-2.6-0.9-4.9-3.9-5.7-6.5c-0.8-2.3,0.6-2.7,2-4c1.4-1.3,2.3-3.4,4.6-3.3c3.7,0.1,5.6,3.2,6.8,6.2
			c0.2,0.5,0.8,0.6,1.1,0.1c2.6-3.8,3.3,0.9,3.4,3c0.1,1.2,1,0.3-0.1,2c-0.5,0.7-3.1,1.4-3.9,1.8c-0.7,0.3-0.1,1.4,0.6,1.1
			c1.5-0.7,4.8-1.4,5.2-3.3c0.1-0.6-0.4-1.2-0.5-1.8c-0.1-1.1,0.5-2.1,0.3-3.2c-0.7-4.4-4.6-2.6-6.3-0.1c0.4,0,0.8,0.1,1.1,0.1
			c-2.4-5.7-7.6-10.3-12.8-4.5c-1.9,2.1-4.4,2.8-3.3,5.8c1.2,3.3,3.5,6.8,6.9,7.9C121.8,21,122.1,19.8,121.3,19.5L121.3,19.5z"/>
	</g>
	<g>
		<path class="st8" d="M120.6,12.2c-1.1-1.5-2.3-2.8-3.8-3.9c-0.6-0.5-1.3,0.6-0.6,1.1c1.3,1,2.4,2.2,3.3,3.5
			C120,13.5,121.1,12.9,120.6,12.2L120.6,12.2z"/>
	</g>
	<g>
		<path class="st8" d="M124.6,10.2c-0.6-1.1-1.5-2-2.5-2.8c-0.8-0.7-1.6-1.5-2.7-1.3c-0.8,0.1-0.5,1.3,0.3,1.2
			c0.6-0.1,1.7,1.1,2.1,1.5c0.7,0.6,1.2,1.3,1.7,2.1C123.9,11.6,125,10.9,124.6,10.2L124.6,10.2z"/>
	</g>
	<g>
		<path class="st8" d="M156.4,15.9c-3.3-1.3-8.1,1.7-7.8,5.4c0.1,0.8,2.6,0.9,2.5,0.1c-0.3-2.9,1.8-4.7,4.4-3.8
			c0.8,0.3,1.8-0.9,1.6-1.5C157.1,16,156.4,15.9,156.4,15.9z"/>
	</g>
	<path class="st16" d="M159.6,72.8c0,0-0.1,0-0.1,0"/>
	<path class="st17" d="M154.7,35.1"/>
	<path class="st17" d="M157.5,28.7"/>
</g>
<g id="Layer_2" class="st0">
	<g class="st1">
		<path d="M-31.3,503.7c0,17.3-14.9,31.3-32.4,31.3c-17.6,0-32.4-14-32.4-31.3c0-17.3,14.8-31.3,32.4-31.3
			C-46.2,472.5-31.3,486.5-31.3,503.7z M-48.4,503.7c0-8.8-6.8-15.9-15.3-15.9s-15.4,7.1-15.4,15.9c0,8.8,6.9,16,15.4,16
			S-48.4,512.5-48.4,503.7z"/>
		<path class="st18" d="M-22.5,507.7c0,6.9-4.8,12.5-11.5,12.5c-2.4,0-4.7-0.8-6.6-2.1v9.8c0,0.6-0.5,1.1-1.1,1.1h-6.7
			c-0.6,0-1.1-0.5-1.1-1.1V497c0-0.6,0.5-1.1,1.1-1.1h6.7c0.6,0,1.1,0.5,1.1,1.1v1.1c0.9-1.3,4.2-2.9,6.6-2.9
			C-27.3,495.2-22.5,500.8-22.5,507.7z M-31.3,507.7c0-3-2-5.5-4.5-5.5c-2.6,0-4.7,2.5-4.7,5.5s2.1,5.4,4.7,5.4
			C-33.3,513.2-31.3,510.7-31.3,507.7z"/>
		<path class="st18" d="M-12.4,510.5c0.9,2.7,3.5,3.5,5.2,3.5c2.7,0.1,4.4-0.5,6-1.2c0.6-0.2,1.2-0.2,1.6,0.4c0.2,0.5,1,2.8,1.3,3.3
			c0.3,0.7,0,1.2-0.4,1.5c-2.6,1.6-6.3,2.2-9.4,2.2c-8.4,0-13.1-5.6-13.1-12.5c0-6.9,4.6-12.5,12.7-12.5c7.1,0,11.2,5.6,11.2,12.5
			c0,2-0.2,2.8-2.7,2.8C-1,510.5-4.4,510.5-12.4,510.5z M-12.6,506h7.2c0-2.7-1.1-4.6-3.2-4.6C-11.1,501.4-12.6,503.2-12.6,506z"/>
		<path class="st18" d="M24,497.4c-0.1,0.8-0.5,5.3-0.6,6c-0.1,1-0.8,1.5-1.7,1.3c-0.9-0.3-2.5-0.8-4.3-0.7c-1.7,0-4.3,0.8-4.3,4.6
			c0,1.2,0,10.1,0,10.1l0,0v0c0,0.6-0.5,1.1-1.1,1.1H5.4c-0.6,0-1.1-0.5-1.1-1.1V497c0-0.6,0.5-1.1,1.1-1.1h6.7
			c0.6,0,1.1,0.5,1.1,1.1v1.1c0.8-1.1,3.8-2.9,6.9-2.9c1.8,0,3,0.3,3.6,0.5C24.1,496,24.1,496.8,24,497.4z"/>
		<path class="st18" d="M46.8,504.1v14.5c0,0.6-0.5,1.1-1.1,1.1h-3.9H39c-0.6,0-1.1-0.5-1.1-1.1v-0.9c-1.6,1.8-4.8,2.6-7.3,2.6
			c-1.4,0-7.2-0.7-7.2-6.7c0-5.2,3.7-7.6,7.2-8.2c2.2-0.3,5.4-0.5,7.3-0.5c0-1.3-0.5-3-3.5-3c-2.7,0-5.3,1-6.6,1.5
			c-0.5,0.2-0.9,0-1.1-0.4c-0.2-0.4-1.5-3.7-1.7-4s-0.1-1,0.4-1.2c1.5-0.8,5.3-2.4,10-2.4c5.3,0,10.6,2.2,11.2,7.8
			C46.8,503.4,46.8,503.7,46.8,504.1z M37.9,511.9v-2.7c0,0-3.4-0.2-4.8,0.9c-1.7,1.3-1.2,4.2,1.7,4.2
			C37.7,514.3,37.9,511.9,37.9,511.9z"/>
	</g>
	<g class="st1">
		<path class="st18" d="M-3.1,489.3v4.9c0,0.2-0.2,0.4-0.4,0.4h-2.2c-0.2,0-0.4-0.2-0.4-0.4v-4.4c0-0.8-0.5-1-0.9-1
			c-0.4,0-0.9,0.2-0.9,1v4.4c0,0.2-0.2,0.4-0.4,0.4h-2.2c-0.2,0-0.4-0.2-0.4-0.4v-4.4c0-0.8-0.5-1-0.9-1c-0.4,0-0.9,0.2-0.9,1
			c0,0.4,0,4.4,0,4.4c0,0.2-0.2,0.4-0.4,0.4h-2.2c-0.2,0-0.4-0.2-0.4-0.4V487c0-0.2,0.2-0.4,0.4-0.4h2.2c0.2,0,0.4,0.2,0.4,0.4v0.4
			c0.3-0.5,1.2-1,2.1-1c1.1,0,1.8,0.3,2.2,0.9c0.7-0.5,1.4-0.9,2.4-0.9C-3.9,486.5-3.1,487.5-3.1,489.3z"/>
		<path class="st18" d="M5.9,490.6c0,2.3-2,4.2-4.3,4.2c-2.3,0-4.3-1.9-4.3-4.2c0-2.3,2-4.2,4.3-4.2C4,486.5,5.9,488.3,5.9,490.6z
			 M3.3,490.6c0-0.9-0.7-1.7-1.6-1.7c-0.9,0-1.6,0.8-1.6,1.7c0,0.9,0.7,1.7,1.6,1.7C2.5,492.3,3.3,491.6,3.3,490.6z"/>
		<path class="st18" d="M6.5,494.3V487c0-0.2,0.2-0.4,0.4-0.4h2.2c0.2,0,0.4,0.2,0.4,0.4v0.4c0.3-0.5,1.4-1,2.3-1c2,0,2.8,1,2.8,2.9
			v4.9c0,0.2-0.2,0.4-0.4,0.4h-2.2c-0.2,0-0.4-0.2-0.4-0.4v-4.4c0-0.8-0.7-1-1.1-1c-0.4,0-1.1,0.2-1.1,1c0,0.4,0,4.4,0,4.4
			c0,0.2-0.2,0.4-0.4,0.4H6.9C6.7,494.6,6.5,494.4,6.5,494.3z"/>
		<path class="st18" d="M23,494.6c-0.4,0-2.2,0-2.2,0c-0.3,0-0.4-0.1-0.6-0.4c-0.1-0.1-0.7-1.3-1.2-2.3h-0.7v2.3
			c0,0.2-0.2,0.4-0.4,0.4h-2.2c-0.2,0-0.4-0.2-0.4-0.4v-9.7c0-0.2,0.2-0.4,0.4-0.4h2.2c0.2,0,0.4,0.2,0.4,0.4v4.8H19
			c0.5-1,1-2.2,1.1-2.3c0.1-0.3,0.3-0.4,0.6-0.4c0,0,1.8,0,2.2,0c0.4,0,0.5,0.2,0.4,0.5c-0.1,0.2-1.5,3-1.7,3.5
			c0.3,0.5,1.8,3.3,1.9,3.5C23.5,494.4,23.4,494.6,23,494.6z"/>
		<path class="st18" d="M25.9,491.5c0.3,0.9,1.2,1.2,1.7,1.2c0.9,0,1.5-0.1,2-0.4c0.2-0.1,0.4-0.1,0.5,0.1c0.1,0.1,0.3,0.9,0.4,1.1
			c0.1,0.2,0,0.4-0.1,0.5c-0.9,0.5-2.1,0.7-3.1,0.7c-2.8,0-4.4-1.9-4.4-4.2c0-2.3,1.5-4.2,4.2-4.2c2.3,0,3.7,1.9,3.7,4.2
			c0,0.7-0.1,0.9-0.9,0.9C29.7,491.5,28.5,491.5,25.9,491.5z M25.8,490h2.4c0-0.9-0.4-1.5-1.1-1.5C26.4,488.5,25.8,489.1,25.8,490z"
			/>
		<path class="st18" d="M39.3,487.2c-0.1,0.3-2.5,7-2.6,7.4c-1.3,3.3-3.8,3.1-4.7,3.1c-0.2,0-0.4-0.2-0.4-0.4v-1.9
			c0-0.2,0.2-0.4,0.4-0.4c0,0,1.6,0.1,1.8-0.9c-0.8-1.9-2.8-6.7-2.9-6.9c-0.1-0.3-0.1-0.5,0.3-0.5c0.4,0,2.1,0,2.1,0
			c0.4,0,0.4,0.1,0.6,0.4c0.1,0.1,1.3,3.8,1.3,3.8s1-3.7,1.1-3.8c0.1-0.3,0.2-0.4,0.6-0.4c0,0,1.7,0,2.1,0
			C39.3,486.7,39.4,486.9,39.3,487.2z"/>
	</g>
</g>
<g id="Layer_3" class="st0">
	<path class="st19" d="M-84,209.6v10.9h-0.6c-0.5-1-0.9-2-1.1-3C-86.2,215-85.6,212.3-84,209.6z"/>
	<path class="st19" d="M-70.2,200.4c0.4,0.9,0.6,1.9,0.6,3.1v17h-3.8v-15.2c0-0.7-0.1-1.4-0.2-2s-0.3-1.2-0.7-1.6
		c-0.3-0.5-0.8-0.8-1.4-1.1c-0.1,0-0.1-0.1-0.2-0.1c1-0.9,2.1-1.8,3.3-2.6c0.3,0.2,0.5,0.3,0.8,0.5
		C-71.1,198.8-70.6,199.5-70.2,200.4z"/>
	<path class="st19" d="M-46,204.1c-0.5-1.5-1.2-2.8-2.2-3.9c-1-1.1-2.1-2-3.5-2.6c-1.4-0.6-3-0.9-4.9-0.9c-1.8,0-3.5,0.3-4.9,0.9
		c-1.4,0.6-2.6,1.5-3.5,2.6c-1,1.1-1.7,2.4-2.2,3.9c-0.5,1.5-0.7,3.1-0.7,4.8c0,1.7,0.2,3.3,0.7,4.8c0.5,1.5,1.2,2.8,2.2,3.8
		c1,1.1,2.1,2,3.5,2.6c1.4,0.6,3,0.9,4.9,0.9c1.9,0,3.5-0.3,4.9-0.9c1.4-0.6,2.6-1.5,3.5-2.6c1-1.1,1.7-2.4,2.2-3.8
		c0.5-1.5,0.7-3.1,0.7-4.8C-45.3,207.2-45.5,205.6-46,204.1z M-49.9,212.7c-0.4,1.1-0.9,2-1.5,2.7c-0.7,0.7-1.4,1.3-2.3,1.7
		c-0.9,0.4-1.8,0.6-2.8,0.6s-1.9-0.2-2.8-0.6c-0.9-0.4-1.7-1-2.3-1.7c-0.7-0.7-1.2-1.7-1.5-2.7c-0.4-1.1-0.6-2.3-0.6-3.8
		c0-1.4,0.2-2.7,0.6-3.8c0.4-1.1,0.9-2,1.5-2.8c0.7-0.8,1.4-1.3,2.3-1.7c0.9-0.4,1.8-0.6,2.8-0.6s1.9,0.2,2.8,0.6
		c0.9,0.4,1.7,1,2.3,1.7c0.7,0.8,1.2,1.7,1.5,2.8c0.4,1.1,0.6,2.3,0.6,3.8C-49.3,210.3-49.5,211.6-49.9,212.7z"/>
	<path class="st19" d="M-24.6,201.8c0.3,1,0.4,2.2,0.4,3.4v15.3h-3.8v-15.7c0-1.4-0.4-2.6-1.2-3.4c-0.8-0.8-2-1.3-3.5-1.3
		c-1.2,0-2.2,0.2-3,0.5c-0.9,0.4-1.6,0.9-2.1,1.5c-0.6,0.7-1,1.4-1.3,2.3c-0.3,0.9-0.4,1.8-0.4,2.9v13.1h-3.8v-23.2h3.6v3.7h0.1
		c1.6-2.8,4.1-4.2,7.5-4.2c1.5,0,2.8,0.2,3.8,0.6c1,0.4,1.8,1,2.5,1.8S-24.9,200.7-24.6,201.8z"/>
	<polygon class="st19" points="-10.9,205.7 -1,220.5 -5.8,220.5 -13.8,208.4 -17.4,211.7 -17.4,220.5 -21.2,220.5 -21.2,188.4 
		-17.4,188.4 -17.4,207.4 -6.8,197.3 -1.6,197.3 	"/>
	<path class="st19" d="M17.9,205.6c-0.3-1.5-0.9-3-1.7-4.3c-0.8-1.3-1.9-2.4-3.3-3.3c-1.4-0.9-3.1-1.3-5.2-1.3c-1.6,0-3,0.3-4.4,0.9
		c-1.3,0.6-2.5,1.4-3.5,2.5c-1,1.1-1.7,2.4-2.3,3.8c-0.5,1.5-0.8,3.1-0.8,4.9c0.1,1.8,0.3,3.4,0.8,4.9c0.5,1.5,1.2,2.8,2.1,3.9
		c0.9,1.1,2.1,1.9,3.4,2.5c1.4,0.6,3,0.9,4.8,0.9c2.6,0,4.8-0.7,6.6-2s2.9-3.3,3.4-5.9h-3.8c-0.3,1.5-1,2.7-2,3.4
		c-1,0.8-2.4,1.1-4,1.1c-1.3,0-2.4-0.2-3.3-0.6c-0.9-0.4-1.7-1-2.3-1.7c-0.6-0.7-1-1.5-1.3-2.4C1,212,0.8,211,0.9,210h17.4
		C18.3,208.6,18.2,207.1,17.9,205.6z M0.9,206.7c0.1-0.9,0.3-1.7,0.6-2.5c0.3-0.8,0.8-1.5,1.3-2.1c0.6-0.6,1.3-1.1,2-1.4
		c0.8-0.3,1.7-0.5,2.7-0.5c1,0,1.8,0.2,2.6,0.5c0.8,0.3,1.5,0.8,2.1,1.4c0.6,0.6,1,1.3,1.4,2.1c0.3,0.8,0.5,1.7,0.6,2.6H0.9z"/>
	<path class="st19" d="M38.1,197.3L28,223.6c-0.5,1.1-0.9,2.1-1.3,2.9c-0.4,0.8-0.9,1.4-1.4,1.9c-0.5,0.5-1.1,0.9-1.7,1.1
		c-0.6,0.2-1.4,0.3-2.2,0.3c-0.5,0-0.9,0-1.4-0.1s-0.9-0.2-1.3-0.3v-3.5c0.4,0.1,0.7,0.2,1.1,0.4c0.4,0.1,0.8,0.2,1.1,0.2
		c0.8,0,1.4-0.2,1.9-0.5c0.5-0.4,0.9-0.9,1.3-1.6l1.6-3.9l-9.2-23.1h4.3l6.8,19h0.1l6.5-19H38.1z"/>
	<path class="st19" d="M67.4,198.1c-0.7-2-1.6-3.8-2.9-5.4c-1.3-1.6-2.9-2.8-4.8-3.7c-1.9-0.9-4.1-1.4-6.7-1.4
		c-2.6,0-4.8,0.5-6.7,1.4c-1.9,0.9-3.5,2.2-4.8,3.7c-1.3,1.6-2.3,3.3-2.9,5.4c-0.6,2-1,4.1-1,6.3s0.3,4.3,1,6.3
		c0.6,2,1.6,3.8,2.9,5.4c1.3,1.6,2.9,2.8,4.8,3.7c1.9,0.9,4.1,1.4,6.7,1.4c2.5,0,4.8-0.5,6.7-1.4c1.9-0.9,3.5-2.1,4.8-3.7
		c1.3-1.6,2.2-3.4,2.9-5.4c0.6-2,1-4.1,1-6.3S68,200.2,67.4,198.1z M63.5,209.2c-0.4,1.6-1.1,3-2,4.2c-0.9,1.3-2.1,2.3-3.5,3
		c-1.4,0.8-3.1,1.1-5,1.1c-2,0-3.6-0.4-5-1.1c-1.4-0.8-2.6-1.8-3.5-3c-0.9-1.3-1.6-2.7-2-4.2c-0.4-1.6-0.6-3.2-0.6-4.8
		s0.2-3.2,0.6-4.8c0.4-1.6,1.1-3,2-4.2c0.9-1.3,2-2.3,3.5-3c1.4-0.8,3.1-1.2,5-1.2c1.9,0,3.6,0.4,5,1.2c1.4,0.8,2.6,1.8,3.5,3
		c0.9,1.3,1.6,2.7,2,4.2c0.4,1.6,0.6,3.2,0.6,4.8S63.9,207.7,63.5,209.2z"/>
	<path class="st19" d="M91.9,204.3c-0.5-1.5-1.1-2.8-2-3.9c-0.9-1.1-2-2-3.3-2.7c-1.3-0.7-2.9-1-4.7-1c-1.6,0-3.1,0.3-4.5,0.9
		c-1.4,0.6-2.3,1.5-3,2.8h-0.1v-3.1h-3.8V229c1.3-0.2,2.6-0.3,3.8-0.4v-11.2h0.1c0.4,0.7,0.9,1.3,1.6,1.7c0.6,0.5,1.3,0.8,2,1.1
		c0.7,0.3,1.4,0.5,2.1,0.6c0.7,0.1,1.3,0.2,1.9,0.2c1.8,0,3.3-0.3,4.7-1c1.3-0.6,2.4-1.5,3.3-2.6c0.9-1.1,1.6-2.4,2-3.9
		c0.4-1.5,0.6-3,0.6-4.7C92.6,207.3,92.3,205.7,91.9,204.3z M88.2,212c-0.2,1.1-0.6,2-1.2,2.9c-0.5,0.8-1.2,1.5-2.1,2
		c-0.9,0.5-2,0.8-3.3,0.8c-1.3,0-2.4-0.2-3.4-0.7c-0.9-0.5-1.7-1.1-2.3-2c-0.6-0.8-1-1.7-1.3-2.8c-0.3-1.1-0.4-2.2-0.4-3.3
		c0-1.1,0.1-2.1,0.4-3.2c0.3-1,0.7-2,1.2-2.8c0.6-0.8,1.3-1.5,2.2-2c0.9-0.5,2-0.8,3.3-0.8c1.2,0,2.3,0.2,3.2,0.7
		c0.9,0.5,1.7,1.1,2.2,1.9c0.6,0.8,1,1.7,1.3,2.8c0.3,1,0.4,2.1,0.4,3.2C88.5,209.8,88.4,210.9,88.2,212z"/>
	<path class="st19" d="M108.1,210H97.2c0,1,0.1,2,0.4,2.9c0.3,0.9,0.7,1.7,1.3,2.4c0.6,0.7,1.4,1.3,2.3,1.7c0.9,0.4,2,0.6,3.3,0.6
		c0.5,0,0.9,0,1.4-0.1c-0.2,0.3-0.3,0.6-0.5,0.9c-0.6,0.9-1.2,1.8-2,2.5c-1.5-0.1-2.7-0.4-3.8-0.9c-1.4-0.6-2.5-1.4-3.4-2.5
		c-0.9-1.1-1.6-2.4-2.1-3.9c-0.5-1.5-0.7-3.1-0.8-4.9c0-1.8,0.3-3.4,0.8-4.9c0.5-1.5,1.3-2.7,2.3-3.8c1-1.1,2.1-1.9,3.5-2.5
		c1.3-0.6,2.8-0.9,4.4-0.9c1.1,0,2.1,0.1,3,0.4c0.4,1.5,0.7,2.9,0.9,4.4c-0.4-0.3-0.9-0.6-1.5-0.9c-0.8-0.3-1.7-0.5-2.6-0.5
		c-1,0-1.9,0.2-2.7,0.5c-0.8,0.3-1.5,0.8-2,1.4c-0.6,0.6-1,1.3-1.4,2.1c-0.3,0.8-0.5,1.6-0.6,2.5h11.1
		C108.3,207.8,108.2,208.9,108.1,210z"/>
</g>
</svg>
